M48
;Layer_Color=9474304
;FILE_FORMAT=4:4
METRIC,LZ
;TYPE=PLATED
T1F00S00C0.6000
T2F00S00C0.7112
T3F00S00C0.7620
T4F00S00C1.0000
T5F00S00C1.4500
T6F00S00C1.5000
T7F00S00C2.0000
%
T01
X0094234Y0006874
Y0008874
T02
X0122174Y0009398
X0097028Y0002921
X0023622Y001016
X0026924Y0024384
X0019431Y0024765
X0017907Y0030988
X00155252Y00310325
X0014478Y0029718
X0006858
X0004318Y003175
X0010033Y0034671
X0019304Y0033528
X0020574Y0034798
X0022225Y0031623
X0023622Y0032766
X0025019Y0031496
X0026416Y0032639
X0003556Y0021082
X0028702Y0024003
X0031369Y00254
X0030734Y00313241
X0032512Y0031369
X0028702
X0034417Y003429
X0036576Y0034798
X0048895Y0034163
X0050927Y0034671
X0051943Y0031496
X0053721
X0055245Y0032639
X0055753Y0029591
X0058928Y0030607
Y0032385
X0060706Y003048
X0064008Y0034544
X0065913
X0063119Y0021336
X0051054Y0019939
X0046609Y0024892
X004826Y0031369
X0034798Y0021209
X0073533Y0024257
X0069977Y0029591
X0079629Y003302
X00809625Y00344805
X00820362Y00308668
X0083439Y0029718
X0084709Y0030861
X0085979Y0029718
X0091948Y002921
X0099568Y0029845
X0101238Y002977
X0103759Y0031242
X0104648Y0025781
X01024635Y00215196
X0098298Y00254
X00974075Y00347995
X0095758Y003429
X0093013Y0037035
X00897715Y0038989
X0075438
X007704Y0036908
X0107253Y00383741
X0109425Y0037035
X0111252Y0034925
X0113284Y0035179
X011457Y0029956
X0111887Y0029845
X0119634Y0034925
X0121412Y0034671
X0125857Y0034798
X0129032Y0034925
X0127889Y0033528
X0129667Y0029845
X0131337Y002977
X0133096Y0029845
X0134493Y0031242
X013716Y0030988
X0135509Y0034798
X0140081Y0033782
X01397Y0036322
X0142494Y0038735
X01231908Y00388628
X0125095Y0027432
X0121539Y0024638
X0145288Y0012192
X0148196Y0026784
T03
X0148717Y0007112
Y0009652
X0125857
Y0007112
X0116586Y0002794
X0114046
X0111506
X0108966
X0106426
X0125857Y0012192
Y0014732
Y0017272
Y0019812
Y0022352
Y0024892
X0148717
Y0022352
Y0019812
Y0017272
Y0014732
Y0012192
T04
X0047775Y0017206
X0050225
X0099775
X0102225
T05
X00080517Y00127488
X0010573Y00114127
X00134327Y00113894
X00159483Y00127488
X00175921Y0015085
X00178982Y00179208
X00169083Y00205941
X0014785Y00225139
X0012Y0023206
X0009215Y00225139
X00070918Y00205941
X00064079Y0015085
X00284079
X00300517Y00127488
X0032573Y00114127
X00354328Y00113894
X00379483Y00127488
X0039592Y0015085
X00398982Y00179208
X00389082Y00205941
X0036785Y00225139
X0034Y0023206
X0031215Y00225139
X00290917Y00205941
X00590918
X0061215Y00225139
X0064Y0023206
X0066785Y00225139
X00654327Y00113894
X0062573Y00114127
X00600517Y00127488
X0058408Y0015085
X0069592Y0015085
X00698982Y00179208
X00689082Y00205941
X00679483Y00127488
X00820517Y00127488
X0084573Y00114127
X00874327Y00113894
X00899483Y00127488
X0091592Y0015085
X00918982Y00179208
X00909082Y00205941
X0088785Y00225139
X0086Y0023206
X0083215Y00225139
X00810918Y00205941
X0080408Y0015085
X0110408
X01120517Y00127488
X0114573Y00114127
X01174327Y00113894
X01199483Y00127488
X0121592Y0015085
X01218982Y00179208
X01209082Y00205941
X0118785Y00225139
X0116Y0023206
X0113215Y00225139
X01110918Y00205941
X01330918
X0135215Y00225139
X0138Y0023206
X0140785Y00225139
X01429082Y00205941
X01438982Y00179208
X01435921Y0015085
X01419483Y00127488
X01394328Y00113894
X0136573Y00114127
X01340517Y00127488
X01324079Y0015085
T06
X0073025Y000508
X0078105
X0008255Y0005461
X0003175
X00061018Y00179208
X00281018
X00581018
X00801018
X01101018
X01321018
T07
X0148Y0002
X0002
Y0038
X0148
M30
