G04 Layer_Physical_Order=2*
G04 Layer_Color=16711680*
%FSLAX44Y44*%
%MOMM*%
G71*
G01*
G75*
%ADD10R,1.4500X1.1000*%
%ADD11C,0.2540*%
%ADD12C,0.3810*%
%ADD13C,0.5080*%
%ADD14O,1.5000X2.0000*%
%ADD15C,3.0000*%
%ADD16O,1.5240X0.9000*%
%ADD17R,1.5240X1.5240*%
%ADD18C,1.5240*%
%ADD19R,1.5240X1.5240*%
G04:AMPARAMS|DCode=20|XSize=1.6mm|YSize=2.6mm|CornerRadius=0mm|HoleSize=0mm|Usage=FLASHONLY|Rotation=138.462|XOffset=0mm|YOffset=0mm|HoleType=Round|Shape=Round|*
%AMOVALD20*
21,1,1.0000,1.6000,0.0000,0.0000,228.5*
1,1,1.6000,0.3316,0.3743*
1,1,1.6000,-0.3316,-0.3743*
%
%ADD20OVALD20*%

%ADD21O,1.6000X2.6000*%
G04:AMPARAMS|DCode=22|XSize=1.6mm|YSize=2.6mm|CornerRadius=0mm|HoleSize=0mm|Usage=FLASHONLY|Rotation=27.692|XOffset=0mm|YOffset=0mm|HoleType=Round|Shape=Round|*
%AMOVALD22*
21,1,1.0000,1.6000,0.0000,0.0000,117.7*
1,1,1.6000,0.2324,-0.4427*
1,1,1.6000,-0.2324,0.4427*
%
%ADD22OVALD22*%

G04:AMPARAMS|DCode=23|XSize=1.6mm|YSize=2.6mm|CornerRadius=0mm|HoleSize=0mm|Usage=FLASHONLY|Rotation=55.385|XOffset=0mm|YOffset=0mm|HoleType=Round|Shape=Round|*
%AMOVALD23*
21,1,1.0000,1.6000,0.0000,0.0000,145.4*
1,1,1.6000,0.4115,-0.2840*
1,1,1.6000,-0.4115,0.2840*
%
%ADD23OVALD23*%

G04:AMPARAMS|DCode=24|XSize=1.6mm|YSize=2.6mm|CornerRadius=0mm|HoleSize=0mm|Usage=FLASHONLY|Rotation=83.077|XOffset=0mm|YOffset=0mm|HoleType=Round|Shape=Round|*
%AMOVALD24*
21,1,1.0000,1.6000,0.0000,0.0000,173.1*
1,1,1.6000,0.4964,-0.0603*
1,1,1.6000,-0.4964,0.0603*
%
%ADD24OVALD24*%

G04:AMPARAMS|DCode=25|XSize=1.6mm|YSize=2.6mm|CornerRadius=0mm|HoleSize=0mm|Usage=FLASHONLY|Rotation=110.769|XOffset=0mm|YOffset=0mm|HoleType=Round|Shape=Round|*
%AMOVALD25*
21,1,1.0000,1.6000,0.0000,0.0000,200.8*
1,1,1.6000,0.4675,0.1773*
1,1,1.6000,-0.4675,-0.1773*
%
%ADD25OVALD25*%

G04:AMPARAMS|DCode=26|XSize=1.6mm|YSize=2.6mm|CornerRadius=0mm|HoleSize=0mm|Usage=FLASHONLY|Rotation=166.154|XOffset=0mm|YOffset=0mm|HoleType=Round|Shape=Round|*
%AMOVALD26*
21,1,1.0000,1.6000,0.0000,0.0000,256.2*
1,1,1.6000,0.1197,0.4855*
1,1,1.6000,-0.1197,-0.4855*
%
%ADD26OVALD26*%

G04:AMPARAMS|DCode=27|XSize=1.6mm|YSize=2.6mm|CornerRadius=0mm|HoleSize=0mm|Usage=FLASHONLY|Rotation=193.846|XOffset=0mm|YOffset=0mm|HoleType=Round|Shape=Round|*
%AMOVALD27*
21,1,1.0000,1.6000,0.0000,0.0000,283.8*
1,1,1.6000,-0.1197,0.4855*
1,1,1.6000,0.1197,-0.4855*
%
%ADD27OVALD27*%

G04:AMPARAMS|DCode=28|XSize=1.6mm|YSize=2.6mm|CornerRadius=0mm|HoleSize=0mm|Usage=FLASHONLY|Rotation=221.538|XOffset=0mm|YOffset=0mm|HoleType=Round|Shape=Round|*
%AMOVALD28*
21,1,1.0000,1.6000,0.0000,0.0000,311.5*
1,1,1.6000,-0.3316,0.3743*
1,1,1.6000,0.3316,-0.3743*
%
%ADD28OVALD28*%

G04:AMPARAMS|DCode=29|XSize=1.6mm|YSize=2.6mm|CornerRadius=0mm|HoleSize=0mm|Usage=FLASHONLY|Rotation=249.231|XOffset=0mm|YOffset=0mm|HoleType=Round|Shape=Round|*
%AMOVALD29*
21,1,1.0000,1.6000,0.0000,0.0000,339.2*
1,1,1.6000,-0.4675,0.1773*
1,1,1.6000,0.4675,-0.1773*
%
%ADD29OVALD29*%

G04:AMPARAMS|DCode=30|XSize=1.6mm|YSize=2.6mm|CornerRadius=0mm|HoleSize=0mm|Usage=FLASHONLY|Rotation=276.923|XOffset=0mm|YOffset=0mm|HoleType=Round|Shape=Round|*
%AMOVALD30*
21,1,1.0000,1.6000,0.0000,0.0000,6.9*
1,1,1.6000,-0.4964,-0.0603*
1,1,1.6000,0.4964,0.0603*
%
%ADD30OVALD30*%

G04:AMPARAMS|DCode=31|XSize=1.6mm|YSize=2.6mm|CornerRadius=0mm|HoleSize=0mm|Usage=FLASHONLY|Rotation=304.615|XOffset=0mm|YOffset=0mm|HoleType=Round|Shape=Round|*
%AMOVALD31*
21,1,1.0000,1.6000,0.0000,0.0000,34.6*
1,1,1.6000,-0.4115,-0.2840*
1,1,1.6000,0.4115,0.2840*
%
%ADD31OVALD31*%

G04:AMPARAMS|DCode=32|XSize=1.6mm|YSize=2.6mm|CornerRadius=0mm|HoleSize=0mm|Usage=FLASHONLY|Rotation=332.308|XOffset=0mm|YOffset=0mm|HoleType=Round|Shape=Round|*
%AMOVALD32*
21,1,1.0000,1.6000,0.0000,0.0000,62.3*
1,1,1.6000,-0.2324,-0.4427*
1,1,1.6000,0.2324,0.4427*
%
%ADD32OVALD32*%

%ADD33C,1.2700*%
%ADD34C,2.5000*%
%ADD35R,0.6000X2.0000*%
%ADD36R,1.6000X0.8000*%
G04:AMPARAMS|DCode=37|XSize=4mm|YSize=2.5mm|CornerRadius=0.625mm|HoleSize=0mm|Usage=FLASHONLY|Rotation=180.000|XOffset=0mm|YOffset=0mm|HoleType=Round|Shape=RoundedRectangle|*
%AMROUNDEDRECTD37*
21,1,4.0000,1.2500,0,0,180.0*
21,1,2.7500,2.5000,0,0,180.0*
1,1,1.2500,-1.3750,0.6250*
1,1,1.2500,1.3750,0.6250*
1,1,1.2500,1.3750,-0.6250*
1,1,1.2500,-1.3750,-0.6250*
%
%ADD37ROUNDEDRECTD37*%
%ADD38R,4.0000X2.5000*%
%ADD39R,1.1000X1.4500*%
%ADD40R,2.5000X1.5000*%
%ADD41R,7.0000X7.0000*%
%ADD42O,1.9000X0.7000*%
%ADD43R,2.0000X0.5500*%
G36*
X1226369Y398316D02*
X1226482Y397510D01*
X1224526Y396009D01*
X1222867Y393847D01*
X1221824Y391329D01*
X1221468Y388628D01*
X1221824Y385926D01*
X1222039Y385406D01*
X1221333Y384350D01*
X1214740D01*
Y384094D01*
X1214580Y382890D01*
X1213470Y382890D01*
X1210310D01*
Y370350D01*
X1207770D01*
Y382890D01*
X1203500Y382890D01*
X1203340Y384094D01*
Y384350D01*
X1201204D01*
X1200597Y385257D01*
X1193167Y392687D01*
X1191214Y393992D01*
X1188910Y394451D01*
X1094550D01*
X1092246Y393992D01*
X1090293Y392687D01*
X1082494Y384889D01*
X1081292Y385297D01*
X1081191Y386062D01*
X1080295Y388224D01*
X1078870Y390081D01*
X1077013Y391507D01*
X1074851Y392402D01*
X1073800Y392541D01*
Y383741D01*
X1071260D01*
Y392541D01*
X1070209Y392402D01*
X1068047Y391507D01*
X1066189Y390081D01*
X1064765Y388224D01*
X1063869Y386062D01*
X1063643Y384350D01*
X1052180D01*
Y384094D01*
X1052020Y382890D01*
X1050910Y382890D01*
X1047750D01*
Y370350D01*
Y357810D01*
X1052020Y357810D01*
X1052180Y356606D01*
Y356350D01*
X1063319D01*
Y329333D01*
X1048847Y314860D01*
X1047568Y315377D01*
X1046631Y317640D01*
X1044972Y319802D01*
X1043611Y320846D01*
Y345189D01*
X1043152Y347493D01*
X1041847Y349446D01*
X1036117Y355177D01*
X1036603Y356350D01*
X1040780D01*
Y356606D01*
X1040940Y357810D01*
X1042050Y357810D01*
X1045210D01*
Y370350D01*
Y382890D01*
X1040940Y382890D01*
X1040780Y384094D01*
Y384350D01*
X1038643D01*
X1038037Y385257D01*
X1025688Y397607D01*
X1026174Y398780D01*
X1226140D01*
X1226369Y398316D01*
D02*
G37*
G36*
X892959Y398229D02*
X893042Y397510D01*
X891375Y396230D01*
X889950Y394373D01*
X889054Y392211D01*
X888915Y391160D01*
X897715D01*
Y388620D01*
X888915D01*
X889054Y387569D01*
X889950Y385407D01*
X890792Y384309D01*
X890890Y383080D01*
X890890Y383080D01*
X890762Y381863D01*
X890730Y381620D01*
X889620Y381620D01*
X886460D01*
Y369080D01*
Y356540D01*
X890730Y356540D01*
X890890Y355336D01*
Y355080D01*
X893002D01*
X893488Y353907D01*
X868233Y328651D01*
X867081Y326927D01*
X865969Y327076D01*
X865811Y327138D01*
Y355080D01*
X879490D01*
Y355336D01*
X879650Y356540D01*
X880760Y356540D01*
X883920D01*
Y369080D01*
Y381620D01*
X879650Y381620D01*
X879490Y382824D01*
Y383080D01*
X875655D01*
X869493Y389242D01*
X867540Y390547D01*
X865236Y391006D01*
X767255D01*
X764951Y390547D01*
X764574Y390296D01*
X763212Y390913D01*
X763041Y392211D01*
X762145Y394373D01*
X760720Y396230D01*
X759053Y397510D01*
X759136Y398229D01*
X759398Y398780D01*
X892697D01*
X892959Y398229D01*
D02*
G37*
G36*
X749624D02*
X749707Y397510D01*
X748040Y396230D01*
X746615Y394373D01*
X745719Y392211D01*
X745581Y391160D01*
X754380D01*
Y388620D01*
X745581D01*
X745719Y387569D01*
X746615Y385407D01*
X747425Y384350D01*
X746799Y383080D01*
X741030D01*
Y382824D01*
X740870Y381620D01*
X739760Y381620D01*
X736600D01*
Y369080D01*
Y356540D01*
X740870Y356540D01*
X741030Y355336D01*
Y355080D01*
X750899D01*
Y326344D01*
X718373Y293817D01*
X717068Y291864D01*
X716713Y290080D01*
X709860D01*
X709084Y291350D01*
X709854Y293208D01*
X710209Y295910D01*
X709854Y298612D01*
X708811Y301130D01*
X707152Y303292D01*
X704990Y304951D01*
X702472Y305994D01*
X699770Y306349D01*
X697068Y305994D01*
X694550Y304951D01*
X692388Y303292D01*
X690729Y301130D01*
X689686Y298612D01*
X689331Y295910D01*
X689686Y293208D01*
X690456Y291350D01*
X689680Y290080D01*
X652130D01*
Y289824D01*
X651970Y288620D01*
X647700D01*
Y276080D01*
X646430D01*
Y274810D01*
X640890D01*
Y269240D01*
X639270D01*
Y274810D01*
X633730D01*
X628190D01*
Y269240D01*
X606440D01*
Y286524D01*
X612136D01*
X614440Y286983D01*
X616393Y288288D01*
X623075Y294969D01*
X676191D01*
X678495Y295428D01*
X680448Y296733D01*
X726887Y343172D01*
X728192Y345125D01*
X728651Y347429D01*
Y355080D01*
X729630D01*
Y355336D01*
X729790Y356540D01*
X730900Y356540D01*
X734060D01*
Y369080D01*
Y381620D01*
X729790Y381620D01*
X729630Y382824D01*
Y383080D01*
X639430D01*
Y382824D01*
X639270Y381620D01*
X638160Y381620D01*
X635000D01*
Y369080D01*
Y356540D01*
X636513D01*
X636766Y355270D01*
X634860Y354481D01*
X632698Y352822D01*
X631039Y350660D01*
X629996Y348142D01*
X629641Y345440D01*
X629996Y342738D01*
X630961Y340411D01*
X630460Y339141D01*
X599835D01*
X598613Y340362D01*
X596660Y341667D01*
X594356Y342126D01*
X584204D01*
X581900Y341667D01*
X581181Y341187D01*
X580061Y341786D01*
Y353810D01*
X581040D01*
Y354066D01*
X581200Y355270D01*
X582310Y355270D01*
X585470D01*
Y367810D01*
Y380350D01*
X581200Y380350D01*
X581040Y381554D01*
Y381810D01*
X490840D01*
Y381554D01*
X490680Y380350D01*
X489570Y380350D01*
X486410D01*
Y367810D01*
Y355270D01*
X490680Y355270D01*
X490840Y354066D01*
Y353810D01*
X491228D01*
X491501Y352766D01*
X490610Y351851D01*
X488950Y352069D01*
X486248Y351714D01*
X483730Y350671D01*
X481568Y349012D01*
X479909Y346850D01*
X478866Y344332D01*
X478511Y341630D01*
X478866Y338928D01*
X479909Y336410D01*
X481568Y334248D01*
X483730Y332589D01*
X486248Y331546D01*
X488950Y331191D01*
X491652Y331546D01*
X494170Y332589D01*
X496332Y334248D01*
X497991Y336410D01*
X499034Y338928D01*
X499262Y340664D01*
X500590Y341020D01*
X501888Y339328D01*
X504050Y337669D01*
X506568Y336626D01*
X507768Y336469D01*
X508223Y335128D01*
X492806Y319711D01*
X491026D01*
X489982Y321072D01*
X487820Y322731D01*
X485302Y323774D01*
X482600Y324129D01*
X479898Y323774D01*
X477380Y322731D01*
X475218Y321072D01*
X473559Y318910D01*
X472516Y316392D01*
X472161Y313690D01*
X472516Y310988D01*
X473559Y308470D01*
X474338Y307456D01*
X473712Y306186D01*
X438210D01*
X435906Y305727D01*
X433953Y304422D01*
X425003Y295472D01*
X423698Y293519D01*
X423239Y291215D01*
Y288810D01*
X358760D01*
Y288554D01*
X358600Y287350D01*
X354330D01*
Y274810D01*
X353060D01*
Y273540D01*
X347520D01*
Y269240D01*
X345900D01*
Y273540D01*
X340360D01*
X334820D01*
Y269240D01*
X326876D01*
X326154Y269722D01*
X323850Y270181D01*
X323355D01*
X323023Y270512D01*
X321070Y271817D01*
X318766Y272276D01*
X308614D01*
X306310Y271817D01*
X304357Y270512D01*
X303084Y269240D01*
X301640D01*
Y285889D01*
X334820D01*
Y276080D01*
X340360D01*
X345900D01*
Y287350D01*
X346441Y288396D01*
X350474Y292429D01*
X383540D01*
X385844Y292888D01*
X387797Y294193D01*
X433517Y339913D01*
X434822Y341866D01*
X435281Y344170D01*
Y353810D01*
X436260D01*
Y354066D01*
X436420Y355270D01*
X437530Y355270D01*
X440690D01*
Y367810D01*
Y380350D01*
X436420Y380350D01*
X436260Y381554D01*
Y381810D01*
X346060D01*
Y381554D01*
X345900Y380350D01*
X344790Y380350D01*
X341630D01*
Y367810D01*
Y355270D01*
X345267Y355270D01*
X345644Y354227D01*
X344819Y353254D01*
X344170Y353339D01*
X341468Y352984D01*
X338950Y351941D01*
X336788Y350282D01*
X335129Y348120D01*
X334086Y345602D01*
X333731Y342900D01*
X333975Y341046D01*
X332975Y339776D01*
X307085D01*
X304781Y339317D01*
X302828Y338012D01*
X288721Y323905D01*
X287020Y324129D01*
X284318Y323774D01*
X283492Y323431D01*
X282436Y324137D01*
Y343345D01*
X281977Y345649D01*
X280672Y347602D01*
X275261Y353014D01*
Y355080D01*
X276240D01*
Y355336D01*
X276400Y356540D01*
X277510Y356540D01*
X280670D01*
Y369080D01*
Y381620D01*
X276400Y381620D01*
X276240Y382824D01*
Y383080D01*
X186040D01*
Y382824D01*
X185880Y381620D01*
X184770Y381620D01*
X181610D01*
Y369080D01*
Y356540D01*
X185880Y356540D01*
X186040Y355336D01*
Y355080D01*
X187019D01*
Y343706D01*
X185658Y342662D01*
X184614Y341301D01*
X110667D01*
X109818Y342571D01*
X110414Y344008D01*
X110769Y346710D01*
X110414Y349412D01*
X109371Y351930D01*
X107928Y353810D01*
X108347Y355080D01*
X139080D01*
Y355336D01*
X139240Y356540D01*
X140350Y356540D01*
X143510D01*
Y369080D01*
Y381620D01*
X139240Y381620D01*
X139080Y382824D01*
Y383080D01*
X48880D01*
Y382824D01*
X48720Y381620D01*
X47610Y381620D01*
X44450D01*
Y369080D01*
Y356540D01*
X48720Y356540D01*
X48880Y355336D01*
Y355080D01*
X49859D01*
Y349250D01*
X50318Y346946D01*
X51623Y344993D01*
X65593Y331023D01*
X67546Y329718D01*
X69850Y329259D01*
X139496D01*
X139558Y329101D01*
X139707Y327989D01*
X137983Y326837D01*
X127823Y316677D01*
X126518Y314724D01*
X126059Y312420D01*
Y290080D01*
X77614D01*
X77052Y291219D01*
X77621Y291960D01*
X78664Y294478D01*
X79019Y297180D01*
X78664Y299882D01*
X77621Y302400D01*
X75962Y304562D01*
X73800Y306221D01*
X71282Y307264D01*
X68580Y307619D01*
X65878Y307264D01*
X63360Y306221D01*
X61198Y304562D01*
X59539Y302400D01*
X58496Y299882D01*
X58141Y297180D01*
X58496Y294478D01*
X59539Y291960D01*
X61128Y289890D01*
X61054Y289489D01*
X60648Y288620D01*
X57150D01*
Y276080D01*
X55880D01*
Y274810D01*
X50340D01*
Y269240D01*
X48720D01*
Y274810D01*
X43180D01*
X37640D01*
Y269240D01*
X30480D01*
X0Y299720D01*
Y398780D01*
X749362D01*
X749624Y398229D01*
D02*
G37*
G36*
X1499870Y251208D02*
X1498600Y251125D01*
X1498491Y251953D01*
X1497320Y254780D01*
X1495457Y257208D01*
X1493030Y259070D01*
X1490638Y260061D01*
X1490173Y261178D01*
X1490162Y261527D01*
X1491001Y262620D01*
X1492044Y265138D01*
X1492399Y267840D01*
X1492044Y270542D01*
X1491170Y272650D01*
X1491800Y273920D01*
X1495960D01*
Y286620D01*
Y299320D01*
Y312020D01*
Y324720D01*
Y337420D01*
Y350120D01*
Y363620D01*
X1467960D01*
Y350120D01*
Y337420D01*
Y324720D01*
Y312020D01*
Y299320D01*
Y286620D01*
Y273920D01*
X1472120D01*
X1472750Y272650D01*
X1471876Y270542D01*
X1471521Y267840D01*
X1471876Y265138D01*
X1472919Y262620D01*
X1474578Y260458D01*
X1476740Y258799D01*
X1478124Y258226D01*
X1478249Y258058D01*
X1478492Y256699D01*
X1477020Y254780D01*
X1475849Y251953D01*
X1475450Y248920D01*
X1475849Y245887D01*
X1477020Y243060D01*
X1478882Y240632D01*
X1481310Y238770D01*
X1484137Y237599D01*
X1487170Y237200D01*
X1490203Y237599D01*
X1493030Y238770D01*
X1495457Y240632D01*
X1497320Y243060D01*
X1498491Y245887D01*
X1498600Y246715D01*
X1499870Y246632D01*
Y225808D01*
X1498600Y225725D01*
X1498491Y226553D01*
X1497320Y229380D01*
X1495457Y231807D01*
X1493030Y233670D01*
X1490203Y234841D01*
X1487170Y235240D01*
X1484137Y234841D01*
X1481310Y233670D01*
X1480308Y232901D01*
X1464603Y248606D01*
Y321310D01*
X1464194Y323366D01*
X1463029Y325109D01*
X1452870Y335270D01*
X1451126Y336434D01*
X1449070Y336843D01*
X1447960D01*
Y350920D01*
X1447497D01*
X1446500Y351580D01*
X1446500Y352190D01*
Y355600D01*
X1421420D01*
Y352190D01*
X1421420Y351580D01*
X1420423Y350920D01*
X1419960D01*
Y350191D01*
X1407160D01*
X1404856Y349732D01*
X1402903Y348427D01*
X1402511Y348035D01*
X1400810Y348259D01*
X1398108Y347904D01*
X1395590Y346861D01*
X1393428Y345202D01*
X1391769Y343040D01*
X1390726Y340522D01*
X1390371Y337820D01*
X1390726Y335118D01*
X1391769Y332600D01*
X1393428Y330438D01*
X1395590Y328779D01*
X1398108Y327736D01*
X1400810Y327381D01*
X1403512Y327736D01*
X1406030Y328779D01*
X1408192Y330438D01*
X1409851Y332600D01*
X1410894Y335118D01*
X1411249Y337820D01*
X1411538Y338149D01*
X1419960D01*
Y324791D01*
X1386794D01*
X1365305Y346279D01*
X1365529Y347980D01*
X1365174Y350682D01*
X1364131Y353200D01*
X1362544Y355268D01*
X1362090Y356350D01*
X1362218Y357567D01*
X1362250Y357810D01*
X1363360Y357810D01*
X1366520D01*
Y370350D01*
Y382890D01*
X1362250Y382890D01*
X1362090Y384094D01*
Y384350D01*
X1360735D01*
X1360652Y384764D01*
X1359347Y386717D01*
X1358289Y387776D01*
X1358775Y388949D01*
X1413748D01*
X1414586Y387994D01*
X1414501Y387350D01*
X1414856Y384648D01*
X1415899Y382130D01*
X1417558Y379968D01*
X1419720Y378309D01*
X1422238Y377266D01*
X1424940Y376911D01*
X1427642Y377266D01*
X1430160Y378309D01*
X1432322Y379968D01*
X1433981Y382130D01*
X1435024Y384648D01*
X1435379Y387350D01*
X1435024Y390052D01*
X1433981Y392570D01*
X1432322Y394732D01*
X1430160Y396391D01*
X1427642Y397434D01*
X1427062Y397510D01*
X1427145Y398780D01*
X1499870D01*
Y251208D01*
D02*
G37*
G36*
X1095520Y361550D02*
X1096571Y361689D01*
X1098733Y362585D01*
X1100590Y364010D01*
X1100697Y364149D01*
X1101900Y363741D01*
Y357810D01*
X1104738D01*
X1104946Y357199D01*
X1105068Y356540D01*
X1103479Y354470D01*
X1102436Y351952D01*
X1102081Y349250D01*
X1102436Y346548D01*
X1103479Y344030D01*
X1105138Y341868D01*
X1107300Y340209D01*
X1109818Y339166D01*
X1110014Y339141D01*
X1110422Y337938D01*
X1066353Y293868D01*
X1065048Y291915D01*
X1064935Y291350D01*
X1043204D01*
X1042718Y292523D01*
X1044754Y294560D01*
X1044970Y294603D01*
X1046923Y295908D01*
X1073597Y322582D01*
X1074902Y324535D01*
X1075361Y326839D01*
Y360726D01*
X1084117Y369482D01*
X1085458Y369027D01*
X1085589Y368029D01*
X1086485Y365867D01*
X1087910Y364010D01*
X1089767Y362585D01*
X1091929Y361689D01*
X1092980Y361550D01*
Y370350D01*
X1095520D01*
Y361550D01*
D02*
G37*
G36*
X931400D02*
X932451Y361689D01*
X934613Y362585D01*
X936470Y364010D01*
X937895Y365867D01*
X938070Y366288D01*
X939340Y366036D01*
Y357810D01*
X943610D01*
Y370350D01*
X946150D01*
Y357810D01*
X950420D01*
X950580Y356606D01*
Y356350D01*
X951559D01*
Y351326D01*
X950198Y350282D01*
X948539Y348120D01*
X947496Y345602D01*
X947141Y342900D01*
X947496Y340198D01*
X948539Y337680D01*
X950198Y335518D01*
X952360Y333859D01*
X954878Y332816D01*
X957580Y332461D01*
X960282Y332816D01*
X962800Y333859D01*
X964962Y335518D01*
X966621Y337680D01*
X967161Y338984D01*
X968388Y339313D01*
X968855Y338954D01*
X971373Y337911D01*
X974075Y337556D01*
X976777Y337911D01*
X979295Y338954D01*
X981457Y340613D01*
X983116Y342775D01*
X984159Y345293D01*
X984316Y346493D01*
X985657Y346948D01*
X989659Y342946D01*
Y306876D01*
X988298Y305832D01*
X986639Y303670D01*
X985596Y301152D01*
X985241Y298450D01*
X985596Y295748D01*
X986639Y293230D01*
X987208Y292489D01*
X986646Y291350D01*
X963280D01*
Y291094D01*
X963120Y289890D01*
X958850D01*
Y277350D01*
X957580D01*
Y276080D01*
X952040D01*
Y269240D01*
X950420D01*
Y276080D01*
X944880D01*
X939340D01*
Y269240D01*
X904890D01*
Y290080D01*
X878511D01*
Y321900D01*
X907206Y350595D01*
X908379Y350109D01*
Y347934D01*
X893633Y333187D01*
X892328Y331234D01*
X891869Y328930D01*
Y313690D01*
X892328Y311386D01*
X893633Y309433D01*
X909265Y293801D01*
X909041Y292100D01*
X909396Y289398D01*
X910439Y286880D01*
X912098Y284718D01*
X914260Y283059D01*
X916778Y282016D01*
X919480Y281661D01*
X922182Y282016D01*
X924700Y283059D01*
X926862Y284718D01*
X928521Y286880D01*
X929564Y289398D01*
X929919Y292100D01*
X929564Y294802D01*
X928521Y297320D01*
X926862Y299482D01*
X924700Y301141D01*
X922182Y302184D01*
X919480Y302539D01*
X917779Y302315D01*
X903911Y316184D01*
Y326436D01*
X918657Y341183D01*
X919962Y343136D01*
X920421Y345440D01*
Y367241D01*
X921691Y367494D01*
X922365Y365867D01*
X923790Y364010D01*
X925647Y362585D01*
X927809Y361689D01*
X928860Y361550D01*
Y370350D01*
X931400D01*
Y361550D01*
D02*
G37*
G36*
X771670Y360280D02*
X772721Y360419D01*
X774883Y361315D01*
X776740Y362740D01*
X776847Y362879D01*
X778050Y362471D01*
Y356540D01*
X782320D01*
Y369080D01*
X784860D01*
Y356540D01*
X789130D01*
X789290Y355336D01*
Y355080D01*
X790269D01*
Y338626D01*
X788908Y337582D01*
X787249Y335420D01*
X786206Y332902D01*
X785851Y330200D01*
X786206Y327498D01*
X787249Y324980D01*
X788908Y322818D01*
X791070Y321159D01*
X793588Y320116D01*
X796290Y319761D01*
X798992Y320116D01*
X801510Y321159D01*
X803672Y322818D01*
X805331Y324980D01*
X806374Y327498D01*
X806729Y330200D01*
X806374Y332902D01*
X805985Y333840D01*
X806443Y334298D01*
X806999Y334711D01*
X809625Y334366D01*
X812327Y334721D01*
X814589Y335658D01*
X815859Y335120D01*
Y318005D01*
X815143Y317708D01*
X812981Y316049D01*
X811322Y313887D01*
X810279Y311369D01*
X809923Y308668D01*
X810279Y305966D01*
X811322Y303448D01*
X812981Y301286D01*
X815143Y299627D01*
X817661Y298584D01*
X820362Y298228D01*
X822851Y298556D01*
X824031Y297787D01*
X823951Y297180D01*
X824306Y294478D01*
X825349Y291960D01*
X825918Y291219D01*
X825356Y290080D01*
X801990D01*
Y289824D01*
X801830Y288620D01*
X797560D01*
Y276080D01*
X796290D01*
Y274810D01*
X790750D01*
Y269240D01*
X789130D01*
Y274810D01*
X783590D01*
X778050D01*
Y269240D01*
X755030D01*
Y290080D01*
X733324D01*
X732838Y291253D01*
X761177Y319593D01*
X762482Y321546D01*
X762941Y323850D01*
Y362331D01*
X764211Y362624D01*
X765917Y361315D01*
X768079Y360419D01*
X769130Y360280D01*
Y369080D01*
X771670D01*
Y360280D01*
D02*
G37*
G36*
X1267460Y357810D02*
X1271730D01*
X1271890Y356606D01*
Y356350D01*
X1272869D01*
Y343706D01*
X1271508Y342662D01*
X1269849Y340500D01*
X1268806Y337982D01*
X1268451Y335280D01*
X1268806Y332578D01*
X1269849Y330060D01*
X1271508Y327898D01*
X1273670Y326239D01*
X1276188Y325196D01*
X1278890Y324841D01*
X1281592Y325196D01*
X1284110Y326239D01*
X1286272Y327898D01*
X1287931Y330060D01*
X1288974Y332578D01*
X1289329Y335280D01*
X1289010Y337702D01*
X1289811Y338878D01*
X1290320Y338811D01*
X1293022Y339166D01*
X1295540Y340209D01*
X1297702Y341868D01*
X1299361Y344030D01*
X1300404Y346548D01*
X1300556Y347704D01*
X1301897Y348159D01*
X1305889Y344166D01*
Y321264D01*
X1292587Y307962D01*
X1291450Y307491D01*
X1289288Y305832D01*
X1287629Y303670D01*
X1286586Y301152D01*
X1286231Y298450D01*
X1286586Y295748D01*
X1287629Y293230D01*
X1288198Y292489D01*
X1287636Y291350D01*
X1284590D01*
Y291094D01*
X1284430Y289890D01*
X1280160D01*
Y277350D01*
Y264810D01*
X1280986D01*
X1281472Y263637D01*
X1272776Y254941D01*
X1268597D01*
X1266858Y257208D01*
X1264430Y259070D01*
X1261603Y260241D01*
X1258570Y260640D01*
X1255737Y260267D01*
X1251818Y264187D01*
X1252249Y265524D01*
X1253271Y265659D01*
X1255433Y266555D01*
X1257290Y267980D01*
X1258715Y269837D01*
X1259380Y271441D01*
X1260650Y271189D01*
Y264810D01*
X1264920D01*
Y277350D01*
Y289890D01*
X1260650D01*
Y277451D01*
X1259380Y277199D01*
X1258715Y278803D01*
X1257290Y280660D01*
X1255433Y282085D01*
X1253271Y282981D01*
X1252220Y283120D01*
Y274320D01*
X1250950D01*
Y273050D01*
X1242150D01*
X1242289Y271999D01*
X1243185Y269837D01*
X1244610Y267980D01*
X1245051Y267641D01*
X1244620Y266371D01*
X1230959D01*
X1228740Y268590D01*
Y291350D01*
X1210844D01*
X1210358Y292523D01*
X1250522Y332688D01*
X1251827Y334641D01*
X1252286Y336945D01*
Y340161D01*
X1253425Y340723D01*
X1254087Y340215D01*
X1256249Y339319D01*
X1257300Y339180D01*
Y347980D01*
X1258570D01*
Y349250D01*
X1267370D01*
X1267231Y350301D01*
X1266335Y352463D01*
X1264910Y354320D01*
X1263053Y355745D01*
X1261135Y356540D01*
X1261388Y357810D01*
X1264920D01*
Y370350D01*
X1267460D01*
Y357810D01*
D02*
G37*
G36*
X479600Y276080D02*
X485140D01*
Y273540D01*
X479600D01*
Y269240D01*
X461660D01*
Y285504D01*
X479600D01*
Y276080D01*
D02*
G37*
G36*
X170275Y315420D02*
X170029Y315100D01*
X168986Y312582D01*
X168631Y309880D01*
X168986Y307178D01*
X170029Y304660D01*
X171688Y302498D01*
X173850Y300839D01*
X176368Y299796D01*
X179070Y299441D01*
X181772Y299796D01*
X184290Y300839D01*
X186452Y302498D01*
X187496Y303859D01*
X196896D01*
X209502Y291253D01*
X209016Y290080D01*
X198740D01*
Y289824D01*
X198580Y288620D01*
X194310D01*
Y276080D01*
X193040D01*
Y274810D01*
X187500D01*
Y269240D01*
X185880D01*
Y274810D01*
X180340D01*
X174800D01*
Y269240D01*
X164480D01*
Y290080D01*
X153814D01*
X153252Y291219D01*
X153821Y291960D01*
X154864Y294478D01*
X155219Y297180D01*
X154864Y299882D01*
X154693Y300293D01*
X155607Y301405D01*
X157573Y301664D01*
X159736Y302560D01*
X161593Y303985D01*
X163018Y305842D01*
X163913Y308004D01*
X164052Y309055D01*
X155252D01*
Y311595D01*
X164052D01*
X163913Y312646D01*
X163018Y314808D01*
X162548Y315420D01*
X163110Y316559D01*
X169714D01*
X170275Y315420D01*
D02*
G37*
G36*
X1419960Y273920D02*
X1428587D01*
Y236090D01*
X1428996Y234034D01*
X1430161Y232290D01*
X1437876Y224575D01*
X1437324Y223331D01*
X1435927Y223402D01*
X1432838Y222738D01*
X1430025Y221298D01*
X1421795Y215618D01*
X1419452Y213499D01*
X1417736Y210845D01*
X1416766Y207838D01*
X1416607Y204683D01*
X1417270Y201593D01*
X1418710Y198781D01*
X1420829Y196437D01*
X1423482Y194722D01*
X1426489Y193751D01*
X1429645Y193592D01*
X1432734Y194255D01*
X1435547Y195695D01*
X1443776Y201376D01*
X1446120Y203495D01*
X1447836Y206148D01*
X1448288Y207551D01*
X1449523Y207848D01*
X1477789Y179582D01*
X1477020Y178580D01*
X1475849Y175753D01*
X1475450Y172720D01*
X1475849Y169687D01*
X1477020Y166860D01*
X1478882Y164433D01*
X1481310Y162570D01*
X1484137Y161399D01*
X1487170Y161000D01*
X1490203Y161399D01*
X1493030Y162570D01*
X1495457Y164433D01*
X1497320Y166860D01*
X1498491Y169687D01*
X1498600Y170515D01*
X1499870Y170432D01*
Y149608D01*
X1498600Y149525D01*
X1498491Y150353D01*
X1497320Y153180D01*
X1495457Y155608D01*
X1493030Y157470D01*
X1490203Y158641D01*
X1487170Y159040D01*
X1484137Y158641D01*
X1481310Y157470D01*
X1478882Y155608D01*
X1477020Y153180D01*
X1475849Y150353D01*
X1475450Y147320D01*
X1475849Y144287D01*
X1477020Y141460D01*
X1478882Y139032D01*
X1481310Y137170D01*
X1484137Y135999D01*
X1487170Y135600D01*
X1490203Y135999D01*
X1493030Y137170D01*
X1495457Y139032D01*
X1497320Y141460D01*
X1498491Y144287D01*
X1498600Y145115D01*
X1499870Y145032D01*
Y124208D01*
X1498600Y124125D01*
X1498491Y124953D01*
X1497320Y127780D01*
X1495457Y130208D01*
X1493030Y132070D01*
X1490203Y133241D01*
X1487170Y133640D01*
X1484137Y133241D01*
X1481310Y132070D01*
X1478882Y130208D01*
X1477020Y127780D01*
X1475849Y124953D01*
X1475450Y121920D01*
X1475849Y118887D01*
X1477020Y116060D01*
X1478882Y113632D01*
X1481310Y111770D01*
X1484137Y110599D01*
X1487170Y110200D01*
X1490203Y110599D01*
X1493030Y111770D01*
X1495457Y113632D01*
X1497320Y116060D01*
X1498491Y118887D01*
X1498600Y119715D01*
X1499870Y119632D01*
Y98808D01*
X1498600Y98725D01*
X1498491Y99553D01*
X1497320Y102380D01*
X1495457Y104808D01*
X1493030Y106670D01*
X1490203Y107841D01*
X1487170Y108240D01*
X1484137Y107841D01*
X1481310Y106670D01*
X1478882Y104808D01*
X1477020Y102380D01*
X1475849Y99553D01*
X1475450Y96520D01*
X1475849Y93487D01*
X1477020Y90660D01*
X1478882Y88232D01*
X1481310Y86370D01*
X1484137Y85199D01*
X1487170Y84800D01*
X1490203Y85199D01*
X1493030Y86370D01*
X1495457Y88232D01*
X1497320Y90660D01*
X1498491Y93487D01*
X1498600Y94315D01*
X1499870Y94232D01*
Y73408D01*
X1498600Y73325D01*
X1498491Y74153D01*
X1497320Y76980D01*
X1495457Y79408D01*
X1493030Y81270D01*
X1490203Y82441D01*
X1487170Y82840D01*
X1484137Y82441D01*
X1481310Y81270D01*
X1478882Y79408D01*
X1477020Y76980D01*
X1475849Y74153D01*
X1475450Y71120D01*
X1475849Y68087D01*
X1477020Y65260D01*
X1478882Y62832D01*
X1481310Y60970D01*
X1484137Y59799D01*
X1487170Y59400D01*
X1490203Y59799D01*
X1493030Y60970D01*
X1495457Y62832D01*
X1497320Y65260D01*
X1498491Y68087D01*
X1498600Y68915D01*
X1499870Y68832D01*
Y-1270D01*
X0D01*
Y115570D01*
X23641D01*
X23683Y115508D01*
X67933Y71258D01*
X69559Y70171D01*
X69847Y68764D01*
X69050Y68110D01*
X66676Y65217D01*
X64911Y61916D01*
X63825Y58335D01*
X63458Y54610D01*
X63825Y50885D01*
X64911Y47304D01*
X66676Y44003D01*
X69050Y41110D01*
X71943Y38736D01*
X75244Y36971D01*
X78825Y35885D01*
X82550Y35518D01*
X86275Y35885D01*
X89856Y36971D01*
X93157Y38736D01*
X96050Y41110D01*
X98424Y44003D01*
X100189Y47304D01*
X100789Y49284D01*
X106890D01*
Y49150D01*
X130890D01*
Y63639D01*
X140890D01*
Y49150D01*
X164890D01*
Y50554D01*
X179254D01*
X181064Y49804D01*
X183740Y49452D01*
X204750D01*
X211866Y42336D01*
X213232Y41287D01*
X214823Y40628D01*
X216530Y40404D01*
X241864D01*
X241940Y40394D01*
X306250D01*
Y37650D01*
X328750D01*
Y40394D01*
X425040D01*
Y36620D01*
X458040D01*
Y59620D01*
X425040D01*
Y53586D01*
X328750D01*
Y56650D01*
X306250D01*
Y53596D01*
X300030D01*
Y64770D01*
X277490D01*
X254950D01*
Y53596D01*
X220828D01*
X220295Y54866D01*
X221226Y57114D01*
X221578Y59790D01*
Y72290D01*
X221226Y74966D01*
X220193Y77459D01*
X218550Y79600D01*
X216409Y81243D01*
X213916Y82276D01*
X211240Y82628D01*
X186782D01*
X186296Y83802D01*
X218064Y115570D01*
X270510D01*
Y114300D01*
X292526Y92284D01*
X292040Y91111D01*
X255224D01*
X246435Y99899D01*
X246659Y101600D01*
X246304Y104302D01*
X245261Y106820D01*
X243602Y108982D01*
X241440Y110641D01*
X238922Y111684D01*
X236220Y112039D01*
X233518Y111684D01*
X231000Y110641D01*
X228838Y108982D01*
X227179Y106820D01*
X226136Y104302D01*
X225781Y101600D01*
X226136Y98898D01*
X227179Y96380D01*
X228838Y94218D01*
X231000Y92559D01*
X233518Y91516D01*
X236220Y91161D01*
X237921Y91385D01*
X248473Y80833D01*
X250426Y79528D01*
X252730Y79069D01*
X254950D01*
Y67310D01*
X277490D01*
X300030D01*
Y74281D01*
X301300Y74960D01*
X302067Y74448D01*
X304371Y73989D01*
X307710D01*
Y68420D01*
X317500D01*
X327290D01*
Y70206D01*
X328463Y70692D01*
X331023Y68133D01*
X332976Y66828D01*
X335280Y66369D01*
X423620D01*
X425924Y66828D01*
X427877Y68133D01*
X442365Y82620D01*
X458040D01*
Y97481D01*
X472499Y111940D01*
X484640D01*
Y115570D01*
X487100D01*
Y113400D01*
X493870D01*
Y123190D01*
X496410D01*
Y113400D01*
X503180D01*
Y115570D01*
X536800D01*
X542537Y109833D01*
X542051Y108660D01*
X511810D01*
Y72390D01*
X548080D01*
Y102631D01*
X549253Y103117D01*
X590968Y61403D01*
X592921Y60098D01*
X595225Y59639D01*
X713360D01*
X713835Y59734D01*
X714592Y58714D01*
X713967Y57545D01*
X712964Y54238D01*
X712750Y52070D01*
X728980D01*
Y68300D01*
X726812Y68086D01*
X725786Y67775D01*
X725113Y68898D01*
X734955Y78740D01*
X789045D01*
X799843Y67943D01*
X801796Y66638D01*
X804100Y66179D01*
X890044D01*
X892348Y66638D01*
X894301Y67943D01*
X968599Y142240D01*
X1036079D01*
Y136345D01*
X1036538Y134041D01*
X1037843Y132088D01*
X1100973Y68958D01*
X1102926Y67653D01*
X1105230Y67194D01*
X1183195D01*
X1185499Y67653D01*
X1187452Y68958D01*
X1197234Y78740D01*
X1203960D01*
X1213616Y88396D01*
X1214883Y88313D01*
X1215400Y87640D01*
X1217257Y86215D01*
X1219419Y85319D01*
X1220470Y85181D01*
Y93980D01*
X1221740D01*
Y95250D01*
X1230539D01*
X1230401Y96301D01*
X1229505Y98463D01*
X1228080Y100320D01*
X1227407Y100837D01*
X1227324Y102104D01*
X1238250Y113030D01*
Y119755D01*
X1247587Y129093D01*
X1248892Y131046D01*
X1249351Y133350D01*
Y138300D01*
X1250621Y138773D01*
X1252710Y137170D01*
X1255537Y135999D01*
X1258570Y135600D01*
X1261603Y135999D01*
X1264430Y137170D01*
X1266858Y139032D01*
X1268720Y141460D01*
X1269891Y144287D01*
X1270290Y147320D01*
X1269891Y150353D01*
X1268720Y153180D01*
X1266858Y155608D01*
X1264430Y157470D01*
X1261603Y158641D01*
X1258570Y159040D01*
X1255537Y158641D01*
X1252710Y157470D01*
X1250283Y155608D01*
X1250137Y155418D01*
X1248934Y155826D01*
Y164214D01*
X1250137Y164622D01*
X1250283Y164433D01*
X1252710Y162570D01*
X1255537Y161399D01*
X1258570Y161000D01*
X1261603Y161399D01*
X1264430Y162570D01*
X1266858Y164433D01*
X1268720Y166860D01*
X1269891Y169687D01*
X1270290Y172720D01*
X1269891Y175753D01*
X1268720Y178580D01*
X1266858Y181007D01*
X1264430Y182870D01*
X1261603Y184041D01*
X1258570Y184440D01*
X1255537Y184041D01*
X1252710Y182870D01*
X1250283Y181007D01*
X1250137Y180818D01*
X1248934Y181226D01*
Y189614D01*
X1250137Y190022D01*
X1250283Y189832D01*
X1252710Y187970D01*
X1255537Y186799D01*
X1258570Y186400D01*
X1261603Y186799D01*
X1264430Y187970D01*
X1266858Y189832D01*
X1268720Y192260D01*
X1269891Y195087D01*
X1270290Y198120D01*
X1269891Y201153D01*
X1268720Y203980D01*
X1266858Y206408D01*
X1264430Y208270D01*
X1261603Y209441D01*
X1258570Y209840D01*
X1255537Y209441D01*
X1252710Y208270D01*
X1250283Y206408D01*
X1250137Y206218D01*
X1248934Y206626D01*
Y217301D01*
X1250204Y217733D01*
X1251324Y216274D01*
X1253446Y214645D01*
X1255918Y213622D01*
X1257300Y213440D01*
Y223520D01*
Y233601D01*
X1255918Y233419D01*
X1253446Y232395D01*
X1251324Y230766D01*
X1250204Y229307D01*
X1248934Y229739D01*
Y232040D01*
X1254799Y237905D01*
X1255537Y237599D01*
X1258570Y237200D01*
X1261603Y237599D01*
X1264430Y238770D01*
X1266858Y240632D01*
X1268597Y242899D01*
X1272776D01*
X1276679Y238996D01*
Y147320D01*
X1277138Y145016D01*
X1278443Y143063D01*
X1331971Y89535D01*
X1276396Y33961D01*
X1177480D01*
Y39560D01*
X1154240D01*
Y21024D01*
X1153206Y19991D01*
X1150443D01*
X1149881Y21130D01*
X1150610Y22080D01*
X1151781Y24907D01*
X1152180Y27940D01*
X1151781Y30973D01*
X1150610Y33800D01*
X1148747Y36228D01*
X1146320Y38090D01*
X1143493Y39261D01*
X1140460Y39660D01*
X1137427Y39261D01*
X1134600Y38090D01*
X1132172Y36228D01*
X1130310Y33800D01*
X1129139Y30973D01*
X1128740Y27940D01*
X1129139Y24907D01*
X1130310Y22080D01*
X1131039Y21130D01*
X1130477Y19991D01*
X1123367D01*
X1122741Y21261D01*
X1123935Y22816D01*
X1124958Y25288D01*
X1125141Y26670D01*
X1115060D01*
X1104979D01*
X1105162Y25288D01*
X1106185Y22816D01*
X1107379Y21261D01*
X1106752Y19991D01*
X1099643D01*
X1099081Y21130D01*
X1099810Y22080D01*
X1100981Y24907D01*
X1101380Y27940D01*
X1100981Y30973D01*
X1099810Y33800D01*
X1097947Y36228D01*
X1095681Y37967D01*
Y54610D01*
X1095222Y56914D01*
X1093917Y58867D01*
X1041799Y110985D01*
X1041607Y112448D01*
X1040851Y114272D01*
X1039649Y115839D01*
X1038082Y117041D01*
X1036258Y117797D01*
X1034300Y118055D01*
X1022300D01*
X1020342Y117797D01*
X1018518Y117041D01*
X1016951Y115839D01*
X1015749Y114272D01*
X1014993Y112448D01*
X1014986Y112395D01*
X998283Y95692D01*
X997952Y95442D01*
X996845Y95333D01*
X991024Y101155D01*
X990851Y101572D01*
X989649Y103139D01*
X988163Y104279D01*
X988040Y104462D01*
X988014Y105708D01*
X988655Y106135D01*
X989989Y108133D01*
X990206Y109220D01*
X978300D01*
X966394D01*
X966610Y108133D01*
X967945Y106135D01*
X968586Y105708D01*
X968560Y104462D01*
X968437Y104279D01*
X966951Y103139D01*
X965749Y101572D01*
X964993Y99748D01*
X964735Y97790D01*
X964993Y95832D01*
X965749Y94008D01*
X966555Y92956D01*
X965929Y91686D01*
X953440D01*
X952885Y93027D01*
X951522Y94802D01*
X949747Y96165D01*
X947679Y97021D01*
X945460Y97313D01*
X939220D01*
X937001Y97021D01*
X934933Y96165D01*
X933158Y94802D01*
X931795Y93027D01*
X930939Y90959D01*
X930647Y88740D01*
X930939Y86521D01*
X931795Y84453D01*
X933158Y82678D01*
X934933Y81315D01*
X937001Y80459D01*
X939220Y80167D01*
X941663D01*
X942607Y79442D01*
X942697Y78760D01*
Y78720D01*
X942607Y78038D01*
X941663Y77313D01*
X939220D01*
X937001Y77021D01*
X934933Y76165D01*
X933158Y74802D01*
X931795Y73027D01*
X930939Y70959D01*
X930647Y68740D01*
X930939Y66521D01*
X931795Y64453D01*
X933158Y62678D01*
X934933Y61315D01*
X937001Y60459D01*
X939220Y60167D01*
X945460D01*
X947679Y60459D01*
X949747Y61315D01*
X951522Y62678D01*
X952885Y64453D01*
X953440Y65794D01*
X968627D01*
X969265Y65529D01*
X969562Y64031D01*
X964401Y58870D01*
X942520D01*
Y39870D01*
X942520D01*
Y38870D01*
X942520D01*
Y19870D01*
X965020D01*
X965020Y19870D01*
Y19870D01*
X966216Y19691D01*
X967578Y19126D01*
X970280Y18771D01*
X972982Y19126D01*
X975500Y20169D01*
X975775Y20380D01*
X976810Y19870D01*
Y19870D01*
X999310D01*
Y20995D01*
X1012370D01*
Y19870D01*
X1034870D01*
Y20995D01*
X1045628D01*
X1056910Y9713D01*
X1058864Y8408D01*
X1061168Y7949D01*
X1155700D01*
X1158004Y8408D01*
X1159957Y9713D01*
X1166564Y16320D01*
X1177480D01*
Y21919D01*
X1278890D01*
X1281194Y22378D01*
X1283147Y23683D01*
X1341120Y81656D01*
X1341943Y80833D01*
X1343896Y79528D01*
X1346200Y79069D01*
X1414780D01*
X1417084Y79528D01*
X1419037Y80833D01*
X1450081Y111877D01*
X1450178Y111836D01*
X1452880Y111481D01*
X1455582Y111836D01*
X1458100Y112879D01*
X1460262Y114538D01*
X1461921Y116700D01*
X1462964Y119218D01*
X1463319Y121920D01*
X1462964Y124622D01*
X1461921Y127140D01*
X1460262Y129302D01*
X1458100Y130961D01*
X1455582Y132004D01*
X1452880Y132359D01*
X1450178Y132004D01*
X1447660Y130961D01*
X1445498Y129302D01*
X1443839Y127140D01*
X1442796Y124622D01*
X1442441Y121920D01*
X1442517Y121341D01*
X1438758Y117583D01*
X1437585Y118206D01*
X1437864Y119647D01*
X1437642Y122798D01*
X1436611Y125785D01*
X1434843Y128403D01*
X1428211Y135889D01*
X1425825Y137960D01*
X1422984Y139343D01*
X1419883Y139944D01*
X1416731Y139721D01*
X1413744Y138691D01*
X1411126Y136922D01*
X1409054Y134536D01*
X1407671Y131695D01*
X1407070Y128593D01*
X1407293Y125441D01*
X1408324Y122455D01*
X1410092Y119836D01*
X1416723Y112351D01*
X1419109Y110280D01*
X1421950Y108897D01*
X1425052Y108296D01*
X1427874Y108495D01*
X1428560Y107385D01*
X1412286Y91111D01*
X1348694D01*
X1344012Y95792D01*
X1342059Y97097D01*
X1341283Y97252D01*
X1331295Y107239D01*
X1331741Y108453D01*
X1331814Y108517D01*
X1334948Y108296D01*
X1338050Y108897D01*
X1340891Y110280D01*
X1343277Y112351D01*
X1349908Y119836D01*
X1351676Y122455D01*
X1352707Y125441D01*
X1352930Y128593D01*
X1352329Y131695D01*
X1350946Y134536D01*
X1348874Y136922D01*
X1346256Y138691D01*
X1343269Y139721D01*
X1342043Y139808D01*
X1341599Y140998D01*
X1370529Y169928D01*
X1371694Y171671D01*
X1372103Y173727D01*
Y221058D01*
X1373242Y221620D01*
X1373948Y221078D01*
X1376867Y219869D01*
X1380000Y219457D01*
X1383133Y219869D01*
X1386052Y221078D01*
X1388559Y223001D01*
X1390482Y225508D01*
X1391691Y228427D01*
X1392103Y231560D01*
Y241560D01*
X1391691Y244693D01*
X1390482Y247612D01*
X1388559Y250119D01*
X1386052Y252042D01*
X1383133Y253251D01*
X1380000Y253664D01*
X1376867Y253251D01*
X1373948Y252042D01*
X1373242Y251500D01*
X1372103Y252062D01*
Y263350D01*
X1387490D01*
Y287349D01*
X1419960D01*
Y273920D01*
D02*
G37*
%LPC*%
G36*
X301640Y383080D02*
X287640D01*
Y382824D01*
X287480Y381620D01*
X286370Y381620D01*
X283210D01*
Y369080D01*
Y356540D01*
X287480Y356540D01*
X287640Y355336D01*
Y355080D01*
X301640D01*
Y383080D01*
D02*
G37*
G36*
X164480D02*
X150480D01*
Y382824D01*
X150320Y381620D01*
X149210Y381620D01*
X146050D01*
Y369080D01*
Y356540D01*
X150320Y356540D01*
X150480Y355336D01*
Y355080D01*
X164480D01*
Y383080D01*
D02*
G37*
G36*
X21270Y394988D02*
Y381270D01*
X34988D01*
X34822Y382948D01*
X33962Y385783D01*
X32566Y388396D01*
X30686Y390686D01*
X28396Y392566D01*
X25783Y393962D01*
X22948Y394822D01*
X21270Y394988D01*
D02*
G37*
G36*
X18730D02*
X17052Y394822D01*
X14217Y393962D01*
X11604Y392566D01*
X9314Y390686D01*
X7434Y388396D01*
X6038Y385783D01*
X5178Y382948D01*
X5012Y381270D01*
X18730D01*
Y394988D01*
D02*
G37*
G36*
X606440Y381810D02*
X592440D01*
Y381554D01*
X592280Y380350D01*
X591170Y380350D01*
X588010D01*
Y367810D01*
Y355270D01*
X592280Y355270D01*
X592440Y354066D01*
Y353810D01*
X606440D01*
Y381810D01*
D02*
G37*
G36*
X461660D02*
X447660D01*
Y381554D01*
X447500Y380350D01*
X446390Y380350D01*
X443230D01*
Y367810D01*
Y355270D01*
X447500Y355270D01*
X447660Y354066D01*
Y353810D01*
X461660D01*
Y381810D01*
D02*
G37*
G36*
X632460Y381620D02*
X628190D01*
Y370350D01*
X632460D01*
Y381620D01*
D02*
G37*
G36*
X179070D02*
X174800D01*
Y370350D01*
X179070D01*
Y381620D01*
D02*
G37*
G36*
X41910D02*
X37640D01*
Y370350D01*
X41910D01*
Y381620D01*
D02*
G37*
G36*
X483870Y380350D02*
X479600D01*
Y369080D01*
X483870D01*
Y380350D01*
D02*
G37*
G36*
X339090D02*
X334820D01*
Y369080D01*
X339090D01*
Y380350D01*
D02*
G37*
G36*
X34988Y378730D02*
X21270D01*
Y365012D01*
X22948Y365178D01*
X25783Y366038D01*
X28396Y367434D01*
X30686Y369314D01*
X32566Y371604D01*
X33962Y374217D01*
X34822Y377052D01*
X34988Y378730D01*
D02*
G37*
G36*
X18730D02*
X5012D01*
X5178Y377052D01*
X6038Y374217D01*
X7434Y371604D01*
X9314Y369314D01*
X11604Y367434D01*
X14217Y366038D01*
X17052Y365178D01*
X18730Y365012D01*
Y378730D01*
D02*
G37*
G36*
X632460Y367810D02*
X628190D01*
Y356540D01*
X632460D01*
Y367810D01*
D02*
G37*
G36*
X179070D02*
X174800D01*
Y356540D01*
X179070D01*
Y367810D01*
D02*
G37*
G36*
X41910D02*
X37640D01*
Y356540D01*
X41910D01*
Y367810D01*
D02*
G37*
G36*
X483870Y366540D02*
X479600D01*
Y355270D01*
X483870D01*
Y366540D01*
D02*
G37*
G36*
X339090D02*
X334820D01*
Y355270D01*
X339090D01*
Y366540D01*
D02*
G37*
G36*
X44450Y326300D02*
Y318770D01*
X51979D01*
X51841Y319821D01*
X50945Y321983D01*
X49520Y323840D01*
X47663Y325265D01*
X45501Y326161D01*
X44450Y326300D01*
D02*
G37*
G36*
X41910D02*
X40859Y326161D01*
X38697Y325265D01*
X36840Y323840D01*
X35415Y321983D01*
X34519Y319821D01*
X34381Y318770D01*
X41910D01*
Y326300D01*
D02*
G37*
G36*
X51979Y316230D02*
X44450D01*
Y308701D01*
X45501Y308839D01*
X47663Y309735D01*
X49520Y311160D01*
X50945Y313017D01*
X51841Y315179D01*
X51979Y316230D01*
D02*
G37*
G36*
X41910D02*
X34381D01*
X34519Y315179D01*
X35415Y313017D01*
X36840Y311160D01*
X38697Y309735D01*
X40859Y308839D01*
X41910Y308701D01*
Y316230D01*
D02*
G37*
G36*
X48720Y288620D02*
X44450D01*
Y277350D01*
X48720D01*
Y288620D01*
D02*
G37*
G36*
X639270D02*
X635000D01*
Y277350D01*
X639270D01*
Y288620D01*
D02*
G37*
G36*
X54610D02*
X50340D01*
Y277350D01*
X54610D01*
Y288620D01*
D02*
G37*
G36*
X41910D02*
X37640D01*
Y277350D01*
X41910D01*
Y288620D01*
D02*
G37*
G36*
X645160D02*
X640890D01*
Y277350D01*
X645160D01*
Y288620D01*
D02*
G37*
G36*
X632460D02*
X628190D01*
Y277350D01*
X632460D01*
Y288620D01*
D02*
G37*
G36*
X351790Y287350D02*
X347520D01*
Y276080D01*
X351790D01*
Y287350D01*
D02*
G37*
G36*
X1387490Y384350D02*
X1373490D01*
Y384094D01*
X1373330Y382890D01*
X1372220Y382890D01*
X1369060D01*
Y370350D01*
Y357810D01*
X1373330Y357810D01*
X1373490Y356606D01*
Y356350D01*
X1387490D01*
Y359630D01*
X1388760Y359883D01*
X1389235Y358737D01*
X1390660Y356880D01*
X1392517Y355455D01*
X1394679Y354559D01*
X1395730Y354421D01*
Y363220D01*
Y372020D01*
X1394679Y371881D01*
X1392517Y370985D01*
X1390660Y369560D01*
X1389235Y367703D01*
X1388760Y366558D01*
X1387490Y366810D01*
Y384350D01*
D02*
G37*
G36*
X1481270Y394988D02*
Y381270D01*
X1494988D01*
X1494822Y382948D01*
X1493962Y385783D01*
X1492566Y388396D01*
X1490686Y390686D01*
X1488396Y392566D01*
X1485783Y393962D01*
X1482948Y394822D01*
X1481270Y394988D01*
D02*
G37*
G36*
X1478730D02*
X1477052Y394822D01*
X1474217Y393962D01*
X1471604Y392566D01*
X1469314Y390686D01*
X1467434Y388396D01*
X1466038Y385783D01*
X1465178Y382948D01*
X1465012Y381270D01*
X1478730D01*
Y394988D01*
D02*
G37*
G36*
X1494988Y378730D02*
X1481270D01*
Y365012D01*
X1482948Y365178D01*
X1485783Y366038D01*
X1488396Y367434D01*
X1490686Y369314D01*
X1492566Y371604D01*
X1493962Y374217D01*
X1494822Y377052D01*
X1494988Y378730D01*
D02*
G37*
G36*
X1478730D02*
X1465012D01*
X1465178Y377052D01*
X1466038Y374217D01*
X1467434Y371604D01*
X1469314Y369314D01*
X1471604Y367434D01*
X1474217Y366038D01*
X1477052Y365178D01*
X1478730Y365012D01*
Y378730D01*
D02*
G37*
G36*
X1398270Y372020D02*
Y364490D01*
X1405800D01*
X1405661Y365541D01*
X1404765Y367703D01*
X1403340Y369560D01*
X1401483Y370985D01*
X1399321Y371881D01*
X1398270Y372020D01*
D02*
G37*
G36*
X1446500Y362160D02*
X1435230D01*
Y358140D01*
X1446500D01*
Y362160D01*
D02*
G37*
G36*
X1432690D02*
X1421420D01*
Y358140D01*
X1432690D01*
Y362160D01*
D02*
G37*
G36*
X1405800Y361950D02*
X1398270D01*
Y354421D01*
X1399321Y354559D01*
X1401483Y355455D01*
X1403340Y356880D01*
X1404765Y358737D01*
X1405661Y360899D01*
X1405800Y361950D01*
D02*
G37*
G36*
X950420Y289890D02*
X946150D01*
Y278620D01*
X950420D01*
Y289890D01*
D02*
G37*
G36*
X956310D02*
X952040D01*
Y278620D01*
X956310D01*
Y289890D01*
D02*
G37*
G36*
X943610D02*
X939340D01*
Y278620D01*
X943610D01*
Y289890D01*
D02*
G37*
G36*
X789130Y288620D02*
X784860D01*
Y277350D01*
X789130D01*
Y288620D01*
D02*
G37*
G36*
X795020D02*
X790750D01*
Y277350D01*
X795020D01*
Y288620D01*
D02*
G37*
G36*
X782320D02*
X778050D01*
Y277350D01*
X782320D01*
Y288620D01*
D02*
G37*
G36*
X1267370Y346710D02*
X1259840D01*
Y339180D01*
X1260891Y339319D01*
X1263053Y340215D01*
X1264910Y341640D01*
X1266335Y343497D01*
X1267231Y345659D01*
X1267370Y346710D01*
D02*
G37*
G36*
X1271730Y289890D02*
X1267460D01*
Y278620D01*
X1271730D01*
Y289890D01*
D02*
G37*
G36*
X1277620D02*
X1273350D01*
Y278620D01*
X1277620D01*
Y289890D01*
D02*
G37*
G36*
X1249680Y283120D02*
X1248629Y282981D01*
X1246467Y282085D01*
X1244610Y280660D01*
X1243185Y278803D01*
X1242289Y276641D01*
X1242150Y275590D01*
X1249680D01*
Y283120D01*
D02*
G37*
G36*
X1277620Y276080D02*
X1273350D01*
Y264810D01*
X1277620D01*
Y276080D01*
D02*
G37*
G36*
X1271730D02*
X1267460D01*
Y264810D01*
X1271730D01*
Y276080D01*
D02*
G37*
G36*
X185880Y288620D02*
X181610D01*
Y277350D01*
X185880D01*
Y288620D01*
D02*
G37*
G36*
X191770D02*
X187500D01*
Y277350D01*
X191770D01*
Y288620D01*
D02*
G37*
G36*
X179070D02*
X174800D01*
Y277350D01*
X179070D01*
Y288620D01*
D02*
G37*
G36*
X1259840Y233601D02*
Y224790D01*
X1268651D01*
X1268468Y226172D01*
X1267445Y228644D01*
X1265816Y230766D01*
X1263694Y232395D01*
X1261222Y233419D01*
X1259840Y233601D01*
D02*
G37*
G36*
X1268651Y222250D02*
X1259840D01*
Y213440D01*
X1261222Y213622D01*
X1263694Y214645D01*
X1265816Y216274D01*
X1267445Y218396D01*
X1268468Y220868D01*
X1268651Y222250D01*
D02*
G37*
G36*
X1411777Y245644D02*
X1408664Y245106D01*
X1405795Y243780D01*
X1403368Y241758D01*
X1401547Y239175D01*
X1396900Y230321D01*
X1395809Y227355D01*
X1395524Y224209D01*
X1396062Y221095D01*
X1397388Y218227D01*
X1399410Y215800D01*
X1401993Y213979D01*
X1404958Y212888D01*
X1408105Y212602D01*
X1411218Y213141D01*
X1414086Y214466D01*
X1416514Y216489D01*
X1418335Y219071D01*
X1422982Y227926D01*
X1424072Y230891D01*
X1424358Y234038D01*
X1423820Y237152D01*
X1422494Y240020D01*
X1420471Y242447D01*
X1417889Y244268D01*
X1414924Y245359D01*
X1411777Y245644D01*
D02*
G37*
G36*
X1446954Y192368D02*
X1437027Y191163D01*
X1433967Y190376D01*
X1431215Y188824D01*
X1428958Y186612D01*
X1427351Y183892D01*
X1426502Y180848D01*
X1426470Y177689D01*
X1427258Y174629D01*
X1428810Y171876D01*
X1431021Y169620D01*
X1433741Y168013D01*
X1436785Y167164D01*
X1439945Y167132D01*
X1449872Y168338D01*
X1452932Y169125D01*
X1455684Y170677D01*
X1457941Y172888D01*
X1459548Y175609D01*
X1460396Y178652D01*
X1460428Y181812D01*
X1459641Y184872D01*
X1458089Y187624D01*
X1455877Y189881D01*
X1453157Y191488D01*
X1450113Y192336D01*
X1446954Y192368D01*
D02*
G37*
G36*
X1436670Y163070D02*
X1433512Y162975D01*
X1430486Y162065D01*
X1427798Y160403D01*
X1425632Y158103D01*
X1424136Y155320D01*
X1423411Y152245D01*
X1423506Y149086D01*
X1424416Y146060D01*
X1426078Y143373D01*
X1428378Y141207D01*
X1431161Y139711D01*
X1440511Y136165D01*
X1443586Y135440D01*
X1446745Y135535D01*
X1449771Y136445D01*
X1452458Y138106D01*
X1454624Y140407D01*
X1456120Y143190D01*
X1456845Y146265D01*
X1456750Y149423D01*
X1455840Y152449D01*
X1454179Y155137D01*
X1451878Y157302D01*
X1449095Y158799D01*
X1439745Y162345D01*
X1436670Y163070D01*
D02*
G37*
G36*
X984300Y116648D02*
X979570D01*
Y111760D01*
X990206D01*
X989989Y112847D01*
X988655Y114845D01*
X986657Y116180D01*
X984300Y116648D01*
D02*
G37*
G36*
X977030D02*
X972300D01*
X969943Y116180D01*
X967945Y114845D01*
X966610Y112847D01*
X966394Y111760D01*
X977030D01*
Y116648D01*
D02*
G37*
G36*
X1258570Y133640D02*
X1255537Y133241D01*
X1252710Y132070D01*
X1250283Y130208D01*
X1248420Y127780D01*
X1247249Y124953D01*
X1246850Y121920D01*
X1247249Y118887D01*
X1248420Y116060D01*
X1250283Y113632D01*
X1252710Y111770D01*
X1255537Y110599D01*
X1258570Y110200D01*
X1261603Y110599D01*
X1264430Y111770D01*
X1266858Y113632D01*
X1268720Y116060D01*
X1269891Y118887D01*
X1270290Y121920D01*
X1269891Y124953D01*
X1268720Y127780D01*
X1266858Y130208D01*
X1264430Y132070D01*
X1261603Y133241D01*
X1258570Y133640D01*
D02*
G37*
G36*
X1365606Y126713D02*
X1362482Y126238D01*
X1359588Y124970D01*
X1357120Y122997D01*
X1355248Y120451D01*
X1354098Y117509D01*
X1351704Y107799D01*
X1351355Y104659D01*
X1351831Y101535D01*
X1353098Y98641D01*
X1355072Y96173D01*
X1357617Y94301D01*
X1360560Y93151D01*
X1363700Y92802D01*
X1366824Y93277D01*
X1369718Y94545D01*
X1372185Y96518D01*
X1374058Y99063D01*
X1375208Y102006D01*
X1377601Y111715D01*
X1377950Y114856D01*
X1377475Y117979D01*
X1376207Y120874D01*
X1374234Y123341D01*
X1371689Y125214D01*
X1368746Y126364D01*
X1365606Y126713D01*
D02*
G37*
G36*
X1394451Y126481D02*
X1391311Y126132D01*
X1388368Y124981D01*
X1385823Y123109D01*
X1383850Y120641D01*
X1382582Y117747D01*
X1382107Y114624D01*
X1382456Y111483D01*
X1384849Y101774D01*
X1385999Y98831D01*
X1387872Y96286D01*
X1390339Y94312D01*
X1393234Y93045D01*
X1396357Y92569D01*
X1399498Y92919D01*
X1402440Y94069D01*
X1404985Y95941D01*
X1406959Y98409D01*
X1408227Y101303D01*
X1408702Y104427D01*
X1408353Y107567D01*
X1405960Y117276D01*
X1404810Y120219D01*
X1402937Y122764D01*
X1400469Y124738D01*
X1397575Y126005D01*
X1394451Y126481D01*
D02*
G37*
G36*
X1230539Y92710D02*
X1223010D01*
Y85181D01*
X1224061Y85319D01*
X1226223Y86215D01*
X1228080Y87640D01*
X1229505Y89497D01*
X1230401Y91659D01*
X1230539Y92710D01*
D02*
G37*
G36*
X1258570Y108240D02*
X1255537Y107841D01*
X1252710Y106670D01*
X1250283Y104808D01*
X1248420Y102380D01*
X1247249Y99553D01*
X1246850Y96520D01*
X1247249Y93487D01*
X1248420Y90660D01*
X1250283Y88232D01*
X1252710Y86370D01*
X1255537Y85199D01*
X1258570Y84800D01*
X1261603Y85199D01*
X1264430Y86370D01*
X1266858Y88232D01*
X1268720Y90660D01*
X1269891Y93487D01*
X1270290Y96520D01*
X1269891Y99553D01*
X1268720Y102380D01*
X1266858Y104808D01*
X1264430Y106670D01*
X1261603Y107841D01*
X1258570Y108240D01*
D02*
G37*
G36*
X509270Y108660D02*
X473000D01*
Y72390D01*
X509270D01*
Y108660D01*
D02*
G37*
G36*
X1270190Y82740D02*
X1246950D01*
Y59500D01*
X1270190D01*
Y82740D01*
D02*
G37*
G36*
X327290Y65880D02*
X318770D01*
Y59110D01*
X327290D01*
Y65880D01*
D02*
G37*
G36*
X316230D02*
X307710D01*
Y59110D01*
X316230D01*
Y65880D01*
D02*
G37*
G36*
X33020Y72110D02*
Y55880D01*
X49250D01*
X49036Y58048D01*
X48033Y61355D01*
X46405Y64402D01*
X44213Y67073D01*
X41542Y69264D01*
X38495Y70893D01*
X35188Y71896D01*
X33020Y72110D01*
D02*
G37*
G36*
X30480D02*
X28312Y71896D01*
X25005Y70893D01*
X21958Y69264D01*
X19287Y67073D01*
X17096Y64402D01*
X15467Y61355D01*
X14464Y58048D01*
X14250Y55880D01*
X30480D01*
Y72110D01*
D02*
G37*
G36*
X731520Y68300D02*
Y52070D01*
X747750D01*
X747536Y54238D01*
X746533Y57545D01*
X744904Y60592D01*
X742713Y63263D01*
X740042Y65455D01*
X736995Y67083D01*
X733688Y68086D01*
X731520Y68300D01*
D02*
G37*
G36*
X49250Y53340D02*
X33020D01*
Y37110D01*
X35188Y37324D01*
X38495Y38327D01*
X41542Y39955D01*
X44213Y42147D01*
X46405Y44818D01*
X48033Y47865D01*
X49036Y51172D01*
X49250Y53340D01*
D02*
G37*
G36*
X30480D02*
X14250D01*
X14464Y51172D01*
X15467Y47865D01*
X17096Y44818D01*
X19287Y42147D01*
X21958Y39955D01*
X25005Y38327D01*
X28312Y37324D01*
X30480Y37110D01*
Y53340D01*
D02*
G37*
G36*
X548080Y69850D02*
X511810D01*
Y33580D01*
X548080D01*
Y69850D01*
D02*
G37*
G36*
X509270D02*
X473000D01*
Y33580D01*
X509270D01*
Y69850D01*
D02*
G37*
G36*
X747750Y49530D02*
X731520D01*
Y33300D01*
X733688Y33514D01*
X736995Y34517D01*
X740042Y36146D01*
X742713Y38337D01*
X744904Y41008D01*
X746533Y44055D01*
X747536Y47362D01*
X747750Y49530D01*
D02*
G37*
G36*
X728980D02*
X712750D01*
X712964Y47362D01*
X713967Y44055D01*
X715595Y41008D01*
X717787Y38337D01*
X720458Y36146D01*
X723505Y34517D01*
X726812Y33514D01*
X728980Y33300D01*
Y49530D01*
D02*
G37*
G36*
X781050Y69892D02*
X777325Y69525D01*
X773744Y68439D01*
X770443Y66674D01*
X767550Y64300D01*
X765176Y61407D01*
X763411Y58106D01*
X762325Y54525D01*
X761958Y50800D01*
X762325Y47075D01*
X763411Y43494D01*
X765176Y40193D01*
X767550Y37300D01*
X770443Y34926D01*
X773744Y33161D01*
X777325Y32075D01*
X781050Y31708D01*
X784775Y32075D01*
X788356Y33161D01*
X791657Y34926D01*
X794550Y37300D01*
X796924Y40193D01*
X798689Y43494D01*
X799775Y47075D01*
X800142Y50800D01*
X799775Y54525D01*
X798689Y58106D01*
X796924Y61407D01*
X794550Y64300D01*
X791657Y66674D01*
X788356Y68439D01*
X784775Y69525D01*
X781050Y69892D01*
D02*
G37*
G36*
X1116330Y38021D02*
Y29210D01*
X1125141D01*
X1124958Y30592D01*
X1123935Y33064D01*
X1122306Y35186D01*
X1120184Y36815D01*
X1117712Y37838D01*
X1116330Y38021D01*
D02*
G37*
G36*
X1113790D02*
X1112408Y37838D01*
X1109936Y36815D01*
X1107814Y35186D01*
X1106185Y33064D01*
X1105162Y30592D01*
X1104979Y29210D01*
X1113790D01*
Y38021D01*
D02*
G37*
G36*
X1481270Y34988D02*
Y21270D01*
X1494988D01*
X1494822Y22948D01*
X1493962Y25783D01*
X1492566Y28396D01*
X1490686Y30686D01*
X1488396Y32566D01*
X1485783Y33962D01*
X1482948Y34822D01*
X1481270Y34988D01*
D02*
G37*
G36*
X1478730D02*
X1477052Y34822D01*
X1474217Y33962D01*
X1471604Y32566D01*
X1469314Y30686D01*
X1467434Y28396D01*
X1466038Y25783D01*
X1465178Y22948D01*
X1465012Y21270D01*
X1478730D01*
Y34988D01*
D02*
G37*
G36*
X21270D02*
Y21270D01*
X34988D01*
X34822Y22948D01*
X33962Y25783D01*
X32566Y28396D01*
X30686Y30686D01*
X28396Y32566D01*
X25783Y33962D01*
X22948Y34822D01*
X21270Y34988D01*
D02*
G37*
G36*
X18730D02*
X17052Y34822D01*
X14217Y33962D01*
X11604Y32566D01*
X9314Y30686D01*
X7434Y28396D01*
X6038Y25783D01*
X5178Y22948D01*
X5012Y21270D01*
X18730D01*
Y34988D01*
D02*
G37*
G36*
X1494988Y18730D02*
X1481270D01*
Y5012D01*
X1482948Y5178D01*
X1485783Y6038D01*
X1488396Y7434D01*
X1490686Y9314D01*
X1492566Y11604D01*
X1493962Y14217D01*
X1494822Y17052D01*
X1494988Y18730D01*
D02*
G37*
G36*
X1478730D02*
X1465012D01*
X1465178Y17052D01*
X1466038Y14217D01*
X1467434Y11604D01*
X1469314Y9314D01*
X1471604Y7434D01*
X1474217Y6038D01*
X1477052Y5178D01*
X1478730Y5012D01*
Y18730D01*
D02*
G37*
G36*
X34988D02*
X21270D01*
Y5012D01*
X22948Y5178D01*
X25783Y6038D01*
X28396Y7434D01*
X30686Y9314D01*
X32566Y11604D01*
X33962Y14217D01*
X34822Y17052D01*
X34988Y18730D01*
D02*
G37*
G36*
X18730D02*
X5012D01*
X5178Y17052D01*
X6038Y14217D01*
X7434Y11604D01*
X9314Y9314D01*
X11604Y7434D01*
X14217Y6038D01*
X17052Y5178D01*
X18730Y5012D01*
Y18730D01*
D02*
G37*
%LPD*%
D10*
X317500Y67150D02*
D03*
Y47150D02*
D03*
X1023620Y29370D02*
D03*
Y49370D02*
D03*
X953770D02*
D03*
Y29370D02*
D03*
X988060D02*
D03*
Y49370D02*
D03*
D11*
Y29370D02*
X1023620D01*
X1435921Y150850D02*
X1444980D01*
X1355090Y370350D02*
Y378460D01*
X1482090Y223520D02*
X1485900D01*
X1459230Y246380D02*
X1482090Y223520D01*
X1433960Y236090D02*
Y280670D01*
Y236090D02*
X1449070Y220980D01*
X1451610Y232410D02*
X1485900Y198120D01*
X1433960Y306070D02*
X1442720D01*
X1451610Y297180D01*
Y232410D02*
Y297180D01*
X1433960Y331470D02*
X1449070D01*
X1459230Y321310D01*
Y246380D02*
Y321310D01*
X953770Y49370D02*
X962500D01*
X441960Y346723D02*
Y367810D01*
X385317Y290080D02*
X441960Y346723D01*
X360577Y290080D02*
X385317D01*
X353060Y282563D02*
X360577Y290080D01*
X353060Y274810D02*
Y282563D01*
X340360Y274810D02*
X353060D01*
X1366730Y276290D02*
X1367790Y277350D01*
X1366730Y173727D02*
Y276290D01*
X1312146Y119144D02*
X1366730Y173727D01*
X1485900Y172720D02*
Y179070D01*
X1449070Y220057D02*
Y220980D01*
Y220057D02*
X1451511Y217616D01*
Y213459D02*
Y217616D01*
Y213459D02*
X1485900Y179070D01*
X1132840Y267720D02*
Y277350D01*
Y267720D02*
X1139190Y261370D01*
X1204980D01*
X1207770Y264160D01*
Y262890D02*
Y276080D01*
X1214133Y246380D02*
X1215390D01*
X1205683Y254830D02*
X1214133Y246380D01*
X1120140Y265430D02*
Y277350D01*
Y265430D02*
X1130740Y254830D01*
X1205683D01*
X1009650Y63340D02*
Y87630D01*
X1019810Y97790D01*
X970680D02*
X986790D01*
X995680Y88900D01*
X988060Y49370D02*
X1002110Y63420D01*
X1002030D02*
Y91840D01*
X1020680Y110490D01*
X859790Y260350D02*
Y276080D01*
X845920Y246480D02*
X859790Y260350D01*
X845920Y218989D02*
Y246480D01*
X845820Y218890D02*
X845920Y218989D01*
X845820Y199390D02*
Y218890D01*
X825638Y179208D02*
X845820Y199390D01*
X801018Y179208D02*
X825638D01*
X821690Y267429D02*
Y276080D01*
X831933Y100330D02*
X845730Y114127D01*
X808977Y100330D02*
X831933D01*
X813851Y120823D02*
X820517Y127488D01*
X834390Y267429D02*
Y276080D01*
X823051Y256090D02*
X834390Y267429D01*
X819600Y256090D02*
X823051D01*
X797733Y120823D02*
X813851D01*
X833126Y248926D02*
X847090Y262890D01*
Y276080D01*
X821684Y248926D02*
X833126D01*
X779805Y150850D02*
X804080D01*
X764095Y215096D02*
X794565Y245565D01*
X757555Y217805D02*
X792115Y252365D01*
X806626D01*
X821690Y267429D01*
X794565Y245565D02*
X809075D01*
X819600Y256090D01*
X770635Y212387D02*
X797008Y238760D01*
X811519D01*
X821684Y248926D01*
X882650Y125281D02*
Y179508D01*
X887730Y184588D01*
X1019810Y97790D02*
X1028300D01*
X1020680Y110490D02*
X1028300D01*
X1020680Y72390D02*
X1028300D01*
X1009650Y63340D02*
X1023620Y49370D01*
X962500D02*
X975360Y62230D01*
X985520D01*
X995680Y72390D01*
Y88900D01*
X882650Y125281D02*
X890654Y117276D01*
Y112646D02*
X897890Y105410D01*
Y91091D02*
Y105410D01*
X886809Y80010D02*
X897890Y91091D01*
X807720Y80010D02*
X886809D01*
X709930Y242570D02*
X742570Y209930D01*
X709930Y242570D02*
Y276080D01*
X890654Y112646D02*
Y117276D01*
X742570Y187070D02*
Y209930D01*
X770635Y160020D02*
X779805Y150850D01*
X770635Y160020D02*
Y212387D01*
X764095Y154461D02*
X797733Y120823D01*
X764095Y154461D02*
Y215096D01*
X757555Y151752D02*
Y217805D01*
Y151752D02*
X808977Y100330D01*
X742570Y145160D02*
Y187070D01*
Y145160D02*
X807720Y80010D01*
X617220Y259270D02*
X626730Y249760D01*
X188600Y57150D02*
X197490Y66040D01*
X325920Y211290D02*
Y234290D01*
Y211290D02*
X339090Y198120D01*
X381262D01*
X389082Y205941D01*
X337682Y179208D02*
X398982D01*
X287020Y229870D02*
Y240030D01*
Y229870D02*
X337682Y179208D01*
X269240Y202646D02*
Y243840D01*
X334290Y150850D02*
X395920D01*
X297180Y187960D02*
X334290Y150850D01*
X282102Y194675D02*
X297180Y187960D01*
X277211Y194675D02*
X282102D01*
X269240Y202646D02*
X277211Y194675D01*
X313690Y246520D02*
Y254000D01*
Y246520D02*
X325920Y234290D01*
X50800Y120650D02*
Y137571D01*
Y120650D02*
X80455Y90995D01*
X96921D01*
X100096Y87820D01*
X158055D01*
X231140Y160905D02*
Y276080D01*
X50800Y137571D02*
X64079Y150850D01*
X158055Y87820D02*
X231140Y160905D01*
X626730Y217820D02*
X631190Y213360D01*
X626730Y217820D02*
Y249760D01*
X671830Y252040D02*
Y276080D01*
X654080Y234290D02*
X671830Y252040D01*
X654080Y212120D02*
Y234290D01*
X615517Y201740D02*
X643700D01*
X574040Y226060D02*
X591197D01*
X560070Y212090D02*
X574040Y226060D01*
X560070Y198120D02*
Y212090D01*
Y198120D02*
X578982Y179208D01*
X581018D01*
X643700Y201740D02*
X654080Y212120D01*
X591197Y226060D02*
X615517Y201740D01*
X1183640Y350507D02*
Y370350D01*
X1147713Y314580D02*
X1183640Y350507D01*
X1143000Y321755D02*
X1170940Y349695D01*
X1098535Y296344D02*
X1123946Y321755D01*
X1098535Y263882D02*
Y296344D01*
Y263882D02*
X1115329Y247088D01*
X1133122D01*
X1145920Y234290D01*
X1114781Y150850D02*
X1145920Y181990D01*
X1104080Y150850D02*
X1114781D01*
X1170940Y349695D02*
Y370350D01*
X1123946Y321755D02*
X1143000D01*
X1145920Y181990D02*
Y234290D01*
D12*
X1165860Y27940D02*
X1278890D01*
X218440Y189230D02*
Y276080D01*
X194310Y165100D02*
X218440Y189230D01*
X118128Y165100D02*
X194310D01*
X80517Y127488D02*
X118128Y165100D01*
X548640Y274810D02*
X549910Y273540D01*
X561340Y252730D02*
Y274810D01*
X695920Y150850D02*
X711200Y135571D01*
X641871Y165100D02*
X679483Y127488D01*
X690880Y228137D02*
Y242570D01*
X684530Y248920D02*
X690880Y242570D01*
X684530Y248920D02*
Y276080D01*
X633730D02*
X646430D01*
X959485Y244475D02*
X970280Y233680D01*
X951230Y252730D02*
X959485Y244475D01*
X859790Y176530D02*
X927735Y244475D01*
X959485D01*
X1046480Y370350D02*
Y381000D01*
X896620Y252730D02*
X951230D01*
X885190Y264160D02*
X896620Y252730D01*
X885190Y264160D02*
Y276080D01*
X783590D02*
X796290D01*
X1033780Y370350D02*
Y381000D01*
X1008380Y264545D02*
X1057720Y215205D01*
X995680Y264160D02*
X1049910Y209930D01*
X1021080Y262890D02*
X1065530Y218440D01*
X944880Y277350D02*
X957580D01*
X995680Y264160D02*
Y277350D01*
X1008380Y264545D02*
Y277350D01*
X1021080Y262890D02*
Y277350D01*
X1117738Y179208D02*
X1131570Y193040D01*
X1101018Y179208D02*
X1117738D01*
X1107440Y277350D02*
X1120140D01*
X1145540D02*
Y299400D01*
X1308290Y185230D02*
X1314312Y179208D01*
X1308290Y224993D02*
X1316990Y233693D01*
X1304290Y232410D02*
Y277350D01*
X1316990Y233693D02*
Y277350D01*
X1318539Y150850D02*
X1324079D01*
X1314312Y179208D02*
X1321018D01*
X1315582D02*
X1321018D01*
X1329690Y207168D02*
X1330918Y205941D01*
X1329690Y207168D02*
Y277350D01*
X1355090Y378460D02*
Y382460D01*
X1417320Y394970D02*
X1424940Y387350D01*
X1350390Y387160D02*
X1355090Y382460D01*
X1132840Y349250D02*
Y351790D01*
Y370350D01*
X1145540Y299400D02*
X1145700Y299560D01*
X1118870Y298450D02*
X1135000Y314580D01*
X1090725Y298681D02*
X1122244Y330200D01*
X1120140Y356870D02*
Y370350D01*
X1112520Y349250D02*
X1120140Y356870D01*
X1196340Y370350D02*
Y381000D01*
X1209040Y370350D02*
Y382270D01*
X1046480Y381000D02*
X1061720Y396240D01*
X1188910Y388430D02*
X1196340Y381000D01*
X1008380Y370350D02*
Y381000D01*
X1021080Y361699D02*
Y370350D01*
X897890Y313690D02*
X919480Y292100D01*
X897890Y313690D02*
Y328930D01*
X914400Y345440D01*
X970280Y233680D02*
Y277350D01*
X982980Y254000D02*
X984250Y252730D01*
X982980Y254000D02*
Y277350D01*
X1033780D02*
Y292100D01*
X1021080Y361699D02*
X1037590Y345189D01*
X1012380Y297700D02*
Y340170D01*
X995680Y356870D02*
Y370350D01*
Y356870D02*
X1012380Y340170D01*
X995680Y298450D02*
Y345440D01*
X982980Y358140D02*
Y370350D01*
Y358140D02*
X995680Y345440D01*
X970280Y351790D02*
X974075Y347995D01*
X970280Y351790D02*
Y370350D01*
X957580Y342900D02*
Y370350D01*
X872490Y276080D02*
Y324394D01*
X905335Y357239D01*
X859790Y297180D02*
Y369080D01*
X847090Y308610D02*
Y369080D01*
X834390Y297180D02*
Y369080D01*
X821690Y309995D02*
X821880Y310185D01*
X821690Y369080D02*
X821880Y368890D01*
Y310185D02*
Y368890D01*
X808990Y345440D02*
Y369080D01*
Y345440D02*
X809625Y344805D01*
X796290Y330200D02*
Y369080D01*
X659130Y261810D02*
Y276080D01*
X656590Y259270D02*
X659130Y261810D01*
X586740Y262890D02*
X590360Y259270D01*
X586740Y262890D02*
Y274810D01*
X671640Y368890D02*
X671830Y369080D01*
Y356870D02*
Y369080D01*
X671640Y356680D02*
Y368890D01*
Y356680D02*
X671830Y356870D01*
X722630Y276080D02*
Y289560D01*
X708660Y367810D02*
X709930Y369080D01*
X696405Y368255D02*
X697230Y369080D01*
X659130D02*
Y372110D01*
X660400Y373380D01*
X659130Y345440D02*
X660400D01*
X659130D02*
X660400Y346710D01*
X646430Y351790D02*
Y369080D01*
X640080Y345440D02*
X646430Y351790D01*
X429260Y274810D02*
Y291215D01*
X354328Y113894D02*
X366622Y101600D01*
X396240D01*
X391160Y261620D02*
Y274810D01*
X403860Y259965D02*
Y274810D01*
X416560Y258310D02*
Y274810D01*
X396240Y101600D02*
X430530Y135890D01*
Y222250D01*
X391160Y261620D02*
X430530Y222250D01*
X438340Y132655D02*
Y225485D01*
X446150Y129420D02*
Y228720D01*
X403860Y259965D02*
X438340Y225485D01*
X416560Y258310D02*
X446150Y228720D01*
X378460Y259080D02*
X422720Y214820D01*
X378460Y259080D02*
Y274810D01*
X510540Y349250D02*
Y367810D01*
X660400Y346710D02*
Y373380D01*
X574040Y274810D02*
Y284480D01*
X561340Y335280D02*
Y367810D01*
X548640Y339911D02*
Y367810D01*
X488950Y341630D02*
X489585D01*
X497840Y349885D01*
Y367810D01*
X510540Y346710D02*
X511810Y345440D01*
X509270Y346710D02*
X510540D01*
X523240Y341630D02*
Y367810D01*
X557530Y299279D02*
X577025Y318774D01*
X537210Y314960D02*
Y328481D01*
X482600Y313690D02*
X495300D01*
X523240Y341630D01*
X353060Y344170D02*
Y367810D01*
X429260Y344170D02*
Y367810D01*
X269240Y276080D02*
Y284480D01*
X429260Y291215D02*
X438210Y300165D01*
X544005D01*
X351790Y342900D02*
X353060Y344170D01*
X416560D02*
Y367810D01*
X325120Y313690D02*
X326455Y315025D01*
X307340Y313241D02*
X320044Y325945D01*
X287020Y313690D02*
X307085Y333755D01*
X244734Y303085D02*
X245114Y302705D01*
X269240Y284480D02*
X276670Y291910D01*
X269240Y350520D02*
Y369080D01*
Y350520D02*
X276415Y343345D01*
Y320416D02*
Y343345D01*
X258704Y302705D02*
X276415Y320416D01*
X245114Y302705D02*
X258704D01*
X256540Y334010D02*
Y369080D01*
Y334010D02*
X264160Y326390D01*
X243840Y337371D02*
Y369080D01*
Y337371D02*
X248475Y332736D01*
Y316675D02*
Y332736D01*
Y316675D02*
X250190Y314960D01*
X231140Y332740D02*
Y369080D01*
X218440Y320040D02*
X222250Y316230D01*
X218440Y320040D02*
Y369080D01*
X205740Y347980D02*
Y369080D01*
X1195070Y396240D02*
X1209040Y382270D01*
X1070610Y246248D02*
Y289611D01*
Y246248D02*
X1110918Y205941D01*
X1070610Y289611D02*
X1120089Y339090D01*
X1207770Y276080D02*
X1209040Y277350D01*
X1196148Y277542D02*
X1196340Y277350D01*
X1360170Y309880D02*
X1371600D01*
X1342390Y292100D02*
X1360170Y309880D01*
X1238455Y377010D02*
X1256415Y394970D01*
X1417320D01*
X1246265Y373775D02*
X1259650Y387160D01*
X1350390D01*
X1342390Y277350D02*
Y292100D01*
X1367790Y359410D02*
Y370350D01*
X1342390Y314960D02*
X1344930Y312420D01*
X1342390Y314960D02*
Y370350D01*
X1329690Y299720D02*
X1330960Y298450D01*
X1329690Y299720D02*
Y370350D01*
X1316990Y353092D02*
X1321752Y348330D01*
X1316990Y353092D02*
Y370350D01*
X1321752Y312103D02*
Y348330D01*
X1313980Y304330D02*
X1314450Y303860D01*
X1304290Y354280D02*
X1311910Y346660D01*
X1304290Y354280D02*
Y370350D01*
X1296670Y303530D02*
X1311910Y318770D01*
Y346660D01*
X1296670Y298450D02*
Y303530D01*
X1313980Y304330D02*
X1321752Y312103D01*
X1355090Y344170D02*
Y347980D01*
X1291590Y350520D02*
Y370350D01*
X1290320Y349250D02*
X1291590Y350520D01*
X1278890Y335280D02*
Y370350D01*
X1258570Y347980D02*
X1266190Y355600D01*
Y370350D01*
X1250950Y274320D02*
X1253980Y277350D01*
X1266190D01*
X1278890D01*
X1266190D02*
Y355600D01*
X1182815Y369525D02*
X1183640Y370350D01*
X1196148Y277542D02*
Y286828D01*
X1246265Y336945D01*
Y373775D01*
X1238455Y340565D02*
Y377010D01*
X1190894Y293255D02*
X1191145D01*
X1238455Y340565D01*
X1183640Y286001D02*
X1190894Y293255D01*
X1183640Y277350D02*
Y286001D01*
X1230645Y345455D02*
Y387365D01*
X1178194Y293255D02*
X1178445D01*
X1230645Y345455D01*
X1170940Y286001D02*
X1178194Y293255D01*
X1170940Y277350D02*
Y286001D01*
X1135000Y314580D02*
X1146096D01*
X1120089Y339090D02*
X1137471D01*
X1145540Y347159D01*
Y367520D01*
X1122244Y330200D02*
X1139626D01*
X1158240Y348814D01*
Y370350D01*
X1182815Y351299D02*
Y369525D01*
X1158240Y277350D02*
Y314960D01*
X1192530Y349250D02*
X1196340D01*
X1158240Y314960D02*
X1192530Y349250D01*
X1209040Y354330D02*
Y370350D01*
Y354330D02*
X1214120Y349250D01*
Y346710D02*
Y349250D01*
X1367790Y359410D02*
X1375410Y351790D01*
X1385570D01*
X1397000Y363220D01*
X1355090Y347980D02*
X1384300Y318770D01*
X1291590Y265240D02*
Y277350D01*
X1275270Y248920D02*
X1291590Y265240D01*
X1275270Y248920D02*
X1282700Y241490D01*
X1242914Y234534D02*
X1257300Y248920D01*
X1069340Y363220D02*
X1094550Y388430D01*
X1188910D01*
X1094250Y370350D02*
X1107440D01*
X1092200Y368300D02*
X1094250Y370350D01*
X1070610Y385661D02*
Y396240D01*
Y385661D02*
X1072530Y383741D01*
X1061720Y396240D02*
X1070610D01*
X1195070D01*
X914400Y345440D02*
Y374650D01*
X905335Y357239D02*
Y376630D01*
X923675Y394970D02*
X1019810D01*
X1033780Y381000D01*
X1002220Y387160D02*
X1008380Y381000D01*
X905335Y376630D02*
X923675Y394970D01*
X914400Y374650D02*
X926910Y387160D01*
X1002220D01*
X930130Y370350D02*
X944880D01*
X885190Y369080D02*
Y377731D01*
X897349Y389890D01*
X897715D01*
X885190Y377731D02*
Y384810D01*
X944880Y277350D02*
Y370350D01*
X872490Y369080D02*
Y377731D01*
X722630Y289560D02*
X756920Y323850D01*
X783590Y276080D02*
Y369080D01*
X756920Y323850D02*
Y374650D01*
X770400Y369080D02*
X783590D01*
X735330D02*
Y381190D01*
X744030Y389890D01*
X756920Y374650D02*
X767255Y384985D01*
X865236D01*
X872490Y377731D01*
X754380Y389890D02*
X758190Y393700D01*
X876300D01*
X885190Y384810D01*
X590360Y324930D02*
X597095D01*
X597475Y325310D01*
X594356Y336105D02*
X597341Y333120D01*
X535940Y338256D02*
Y367810D01*
X537210Y328481D02*
X548640Y339911D01*
X552450Y326390D02*
X561340Y335280D01*
X544005Y300165D02*
X569215Y325375D01*
Y332161D01*
X574040Y336986D01*
Y367810D01*
X577025Y318774D02*
Y328926D01*
X584204Y336105D01*
X594356D01*
X589280Y323850D02*
X591440D01*
X557530Y295910D02*
Y299279D01*
X589280Y306070D02*
X600710Y317500D01*
X607060Y300355D02*
Y304800D01*
X574040Y284480D02*
X582105Y292545D01*
X612136D01*
X607060Y304800D02*
X611060Y308800D01*
X697230Y276080D02*
Y293370D01*
X699770Y295910D01*
X735330Y348365D02*
Y369080D01*
X695130Y308165D02*
X735330Y348365D01*
X709930Y345774D02*
Y369080D01*
X696405Y343294D02*
Y368255D01*
X684530Y342464D02*
Y369080D01*
X671640Y340619D02*
Y356680D01*
X722630Y347429D02*
Y369080D01*
X597341Y333120D02*
X664141D01*
X671640Y340619D01*
X597475Y325310D02*
X667376D01*
X684530Y342464D01*
X600710Y317500D02*
X670611D01*
X696405Y343294D01*
X611060Y308800D02*
X672956D01*
X709930Y345774D01*
X612136Y292545D02*
X620581Y300990D01*
X676191D01*
X722630Y347429D01*
X694694Y308165D02*
X695130D01*
X679709Y293180D02*
X694694Y308165D01*
X646240Y293180D02*
X679709D01*
X633730Y280670D02*
X646240Y293180D01*
X633730Y276080D02*
Y280670D01*
X735330Y242570D02*
Y276080D01*
X357411Y257810D02*
X365760Y266159D01*
X330200Y257810D02*
X357411D01*
X323850Y264160D02*
X330200Y257810D01*
X281940Y264160D02*
Y276080D01*
X547370Y238760D02*
X561340Y252730D01*
X539560Y241995D02*
X549910Y252345D01*
Y273540D01*
X531750Y245230D02*
X535940Y249420D01*
Y274810D01*
X547370Y181610D02*
Y238760D01*
Y181610D02*
X563880Y165100D01*
X641871D01*
X454595Y237555D02*
X465960Y248920D01*
X466090D01*
X365760Y244995D02*
Y266159D01*
Y274810D01*
X217729Y303085D02*
X244734D01*
X193040Y335280D02*
Y369080D01*
X68580Y354330D02*
Y367810D01*
Y354330D02*
X76200Y346710D01*
X100330D01*
X69850Y335280D02*
X193040D01*
X55880Y349250D02*
X69850Y335280D01*
X55880Y349250D02*
Y367810D01*
X215900Y293370D02*
X265430D01*
X132080Y276080D02*
Y312420D01*
X93980Y261810D02*
Y276080D01*
X1355090Y277350D02*
Y287020D01*
X1361440Y293370D01*
X1428880D01*
X1384300Y318770D02*
X1433960D01*
X1407160Y344170D02*
X1433960D01*
X1400810Y337820D02*
X1407160Y344170D01*
X1403350Y356870D02*
X1433960D01*
X1397000Y363220D02*
X1403350Y356870D01*
X519430Y321746D02*
X535940Y338256D01*
X519430Y314960D02*
Y321746D01*
X1230645Y387365D02*
X1231908Y388628D01*
X1037590Y312420D02*
Y345189D01*
X1033780Y292100D02*
X1041845Y300165D01*
X1042666D01*
X1069340Y326839D01*
Y363220D01*
X265430Y293370D02*
X273050Y300990D01*
X302260D01*
X198234Y322580D02*
X217729Y303085D01*
X132080Y312420D02*
X142240Y322580D01*
X198234D01*
X179070Y309880D02*
X199390D01*
X215900Y293370D01*
X185420Y276080D02*
X193040D01*
X152400Y309100D02*
X185420Y276080D01*
X302260Y300990D02*
X302264Y300986D01*
X312416D01*
X312420Y300990D01*
X339215D01*
X276670Y291910D02*
X341440D01*
X403860Y346659D02*
Y367810D01*
X391160Y345004D02*
Y367810D01*
X378460Y343349D02*
Y367810D01*
X365760Y347980D02*
Y367810D01*
X344170Y342900D02*
X351790D01*
X320044Y325945D02*
X330196D01*
X333306Y322835D01*
X339215Y300990D02*
X345440Y307215D01*
X379605D01*
X326455Y315025D02*
X372226D01*
X403860Y346659D01*
X333306Y322835D02*
X368991D01*
X391160Y345004D01*
X365756Y330645D02*
X378460Y343349D01*
X379605Y307215D02*
X416560Y344170D01*
X341440Y291910D02*
X347980Y298450D01*
X383540D01*
X429260Y344170D01*
X1433960Y356870D02*
Y364620D01*
X1449340Y380000D01*
X1480000D01*
X307085Y333755D02*
X335984D01*
X339094Y330645D01*
X365756D01*
X24175Y384175D02*
X47625D01*
X20000Y380000D02*
X24175Y384175D01*
X1295590Y173800D02*
X1318539Y150850D01*
X1295590Y173800D02*
Y223710D01*
X1304290Y232410D01*
X1308290Y185230D02*
Y224993D01*
X1282700Y147320D02*
Y241490D01*
X1338485Y91535D02*
X1339755D01*
X1346200Y85090D02*
X1414780D01*
X1282700Y147320D02*
X1338485Y91535D01*
X1339755D02*
X1341120Y90170D01*
X1346200Y85090D01*
X1278890Y27940D02*
X1341120Y90170D01*
X1451610Y121920D02*
X1452880D01*
X1414780Y85090D02*
X1451610Y121920D01*
X1314450Y293370D02*
Y303860D01*
X1090725Y246145D02*
Y298681D01*
X1258570Y248920D02*
X1275270D01*
X1247140Y260350D02*
X1258570Y248920D01*
X1242914Y149172D02*
X1243330Y148756D01*
X1090725Y246145D02*
X1131570Y205301D01*
Y193040D02*
Y205301D01*
X1207770Y262890D02*
X1210310Y260350D01*
X1247140D01*
X735330Y242570D02*
X745490D01*
X789940Y86360D02*
X804100Y72200D01*
X846615Y87820D02*
X859790Y100995D01*
Y102039D02*
X859903Y102152D01*
X811340Y87820D02*
X846615D01*
X745490Y242570D02*
X757555Y230505D01*
X750380Y223330D02*
X757555Y230505D01*
X890044Y72200D02*
X989904Y172060D01*
X997750D01*
X804100Y72200D02*
X890044D01*
X757555Y230505D02*
X787225Y260175D01*
X859790Y144780D02*
X859903Y144667D01*
X859790Y144780D02*
Y176530D01*
X859903Y102152D02*
Y144667D01*
X859790Y100995D02*
Y102039D01*
X787225Y260175D02*
X801736D01*
X808990Y267429D01*
X887730Y184588D02*
X909082Y205941D01*
X1028300Y97790D02*
X1033780D01*
X1064260Y67310D01*
Y27940D02*
Y67310D01*
X1028300Y110490D02*
X1033780D01*
X1089660Y54610D01*
Y27940D02*
Y54610D01*
X1165860Y24130D02*
Y27940D01*
X1155700Y13970D02*
X1165860Y24130D01*
X988060Y29370D02*
X990415Y27016D01*
X1061168Y13970D02*
X1155700D01*
X1040130Y72390D02*
X1048860Y63660D01*
Y29370D02*
Y63660D01*
X1028300Y72390D02*
X1040130D01*
X990415Y27016D02*
X1048122D01*
X1061168Y13970D01*
X941547Y111760D02*
X942817Y110490D01*
X978300D01*
X953770Y29370D02*
X970120D01*
X970280Y29210D01*
X713360Y65660D02*
X734060Y86360D01*
X789940D01*
X629385Y90590D02*
X629617Y90358D01*
X692338D01*
X711200Y109220D01*
Y135571D01*
X750380Y148780D02*
X811340Y87820D01*
X750380Y148780D02*
Y223330D01*
X705930Y73470D02*
X734060Y101600D01*
X701040Y81280D02*
X725170Y105410D01*
X689082Y205941D02*
X713539D01*
X734060Y185420D01*
Y101600D02*
Y185420D01*
X698982Y179208D02*
X709792D01*
X725170Y163830D01*
Y105410D02*
Y163830D01*
X590360Y324930D02*
X591440Y323850D01*
X591820Y323470D01*
X590360Y259270D02*
X617220D01*
X656590D01*
X502250Y158635D02*
X595225Y65660D01*
X523240Y148690D02*
Y274810D01*
Y148690D02*
X598460Y73470D01*
X705930D01*
X531750Y151225D02*
Y245230D01*
Y151225D02*
X601695Y81280D01*
X701040D01*
X539560Y154460D02*
Y241995D01*
Y154460D02*
X603430Y90590D01*
X629385D01*
X502250Y158635D02*
Y172060D01*
X595225Y65660D02*
X713360D01*
X299291Y85090D02*
X304371Y80010D01*
X236220Y101600D02*
X252730Y85090D01*
X299291D01*
X304371Y80010D02*
X327660D01*
X308684Y87820D02*
X330895D01*
X423620Y72390D02*
X445350Y94120D01*
X327660Y80010D02*
X335280Y72390D01*
X423620D01*
X330895Y87820D02*
X337435Y81280D01*
X398010D01*
X446150Y129420D01*
X340670Y89090D02*
X394775D01*
X325730Y104030D02*
X340670Y89090D01*
X394775D02*
X438340Y132655D01*
X325730Y104030D02*
Y114127D01*
X410698Y127488D02*
X422720Y139510D01*
Y214820D01*
X379483Y127488D02*
X410698D01*
X347980Y212090D02*
Y219875D01*
X353905Y225800D01*
Y233140D01*
X365760Y244995D01*
X281940Y264160D02*
X292100Y254000D01*
X299720D01*
X293370Y103134D02*
Y120341D01*
Y103134D02*
X302260Y94244D01*
X308684Y87820D01*
X299720Y254000D02*
X301435Y255715D01*
Y259076D01*
X308614Y266255D01*
X318766D01*
X320861Y264160D01*
X323850D01*
X256540Y162560D02*
Y276080D01*
X243840Y162560D02*
Y276080D01*
X39370Y159830D02*
X58748Y179208D01*
X61018D01*
X39370Y119380D02*
Y159830D01*
X27940Y181610D02*
X52271Y205941D01*
X27940Y119765D02*
Y181610D01*
X52271Y205941D02*
X70918D01*
X100299Y77470D02*
X158750D01*
X243840Y162560D01*
X97064Y69660D02*
X163640D01*
X256540Y162560D01*
X27940Y119765D02*
X72190Y75515D01*
X91209D01*
X97064Y69660D01*
X39370Y119380D02*
X74930Y83820D01*
X93949D01*
X100299Y77470D01*
X35560Y210820D02*
Y226060D01*
X67310Y257810D01*
X89980D01*
X93980Y261810D01*
X92710Y248920D02*
X106680Y262890D01*
Y276080D01*
X69850Y227020D02*
Y240030D01*
X78740Y248920D01*
X92710D01*
X151102Y187960D02*
X169083Y205941D01*
X69850Y227020D02*
X108911Y187960D01*
X151102D01*
X119380Y264160D02*
Y276080D01*
Y264160D02*
X134620Y248920D01*
X172720D01*
X191770Y229870D01*
X178982Y179208D02*
X191770Y191996D01*
Y229870D01*
X590918Y205941D02*
X611438Y185420D01*
X648163D01*
X690880Y228137D01*
X1115060Y27940D02*
X1151890Y64770D01*
X1183195Y73215D02*
X1243330Y133350D01*
Y148756D01*
X1179960Y81025D02*
X1204788Y105852D01*
Y122184D01*
X1199483Y127488D02*
X1204788Y122184D01*
X1161985Y88835D02*
X1174327Y101177D01*
Y113894D01*
X1134110Y97790D02*
X1145730Y109410D01*
Y114127D01*
X1065530Y146050D02*
Y218440D01*
Y146050D02*
X1113790Y97790D01*
X1134110D01*
X1042100Y136345D02*
X1105230Y73215D01*
X1049910Y139580D02*
X1108465Y81025D01*
X1057720Y142815D02*
X1111700Y88835D01*
X1057720Y142815D02*
Y215205D01*
X1111700Y88835D02*
X1161985D01*
X1049910Y139580D02*
Y209930D01*
X1108465Y81025D02*
X1179960D01*
X1105230Y73215D02*
X1183195D01*
X1242914Y149172D02*
Y234534D01*
X1046480Y257810D02*
Y277350D01*
X1045210Y256540D02*
X1046480Y257810D01*
X970280Y233680D02*
X988060Y215900D01*
X1022095D01*
X1024635Y218440D01*
X1026319Y214471D02*
X1042100Y198690D01*
Y136345D02*
Y198690D01*
X1146096Y314580D02*
X1182815Y351299D01*
D13*
X22860Y221619D02*
Y269730D01*
X485140Y240030D02*
Y274810D01*
X441960Y250190D02*
Y274810D01*
X495140Y90330D02*
Y123190D01*
X474420D02*
X475140D01*
X530860Y54610D02*
X727710D01*
X514350Y71120D02*
X530860Y54610D01*
X495140Y123190D02*
Y127160D01*
X445350Y94120D02*
X446975Y95745D01*
X441960Y250190D02*
X454595Y237555D01*
X446975Y95745D02*
Y118302D01*
X454595Y125922D01*
X463675Y218565D02*
X485140Y240030D01*
X463675Y158625D02*
Y218565D01*
Y158625D02*
X495140Y127160D01*
X454595Y125922D02*
Y237555D01*
X730250Y54610D02*
X751790Y76150D01*
X633730Y369080D02*
Y381000D01*
X642620Y389890D01*
X744030D02*
X754380D01*
X586740Y382270D02*
X594360Y389890D01*
X642620D01*
X744030D01*
X586740Y367810D02*
Y381190D01*
X576770Y391160D02*
X586740Y381190D01*
X494030Y391160D02*
X576770D01*
X485140Y382270D02*
X494030Y391160D01*
X477520Y388620D02*
X485140Y381000D01*
X452120Y388620D02*
X477520D01*
X441960Y378460D02*
X452120Y388620D01*
X485140Y367810D02*
Y381000D01*
Y382270D01*
X441960Y367810D02*
Y377359D01*
X430699Y388620D02*
X441960Y377359D01*
X350520Y388620D02*
X430699D01*
X340360Y378460D02*
X350520Y388620D01*
X441960Y377359D02*
Y378460D01*
X340360Y367810D02*
Y369570D01*
X281940Y378629D02*
X290661Y387350D01*
X281940Y369080D02*
Y378629D01*
X290661Y387350D02*
X331470D01*
X340360Y378460D01*
X273219Y387350D02*
X281940Y378629D01*
X180340Y369080D02*
Y382460D01*
X185230Y387350D01*
X273219D01*
X444220Y46990D02*
X445350Y48120D01*
X485140Y274810D02*
X497840D01*
X441960D02*
Y287020D01*
X447040Y292100D01*
X504190D01*
X510540Y285750D01*
Y274810D02*
Y285750D01*
Y199390D02*
Y274810D01*
X446975Y95745D02*
X474420Y123190D01*
X205740Y262890D02*
Y276080D01*
X194310Y251460D02*
X205740Y262890D01*
X144780Y383540D02*
X151130Y389890D01*
X144780Y369080D02*
Y383540D01*
X159530Y389890D02*
X180340Y369080D01*
X53340Y389890D02*
X151130D01*
X159530D01*
X22860Y269730D02*
X29210Y276080D01*
X43180D01*
X55880D01*
X68580D02*
Y297180D01*
X1481960Y267840D02*
Y280670D01*
X15240Y72390D02*
Y213999D01*
X22860Y221619D01*
X82550Y55880D02*
X117620D01*
X118890Y57150D01*
X144780Y276080D02*
Y297180D01*
X43180Y276080D02*
Y317500D01*
Y369080D01*
Y379730D02*
X47625Y384175D01*
X53340Y389890D01*
X751790Y76150D02*
X786180D01*
X798575Y63755D01*
X942340Y88740D02*
X945990Y85090D01*
X978300D01*
X942340Y68740D02*
X945990Y72390D01*
X978300D01*
X798575Y63755D02*
X893542D01*
X941547Y111760D01*
X979647Y149860D01*
X152890Y57150D02*
X188600D01*
X197490Y66040D02*
X216530Y47000D01*
X317350D02*
X317500Y47150D01*
X216530Y47000D02*
X241930D01*
X317350D01*
X241930D02*
X241940Y46990D01*
X444220D01*
X277490Y66040D02*
X316390D01*
Y64770D02*
X317215Y63945D01*
X507175D01*
X15240Y72390D02*
X53550Y34080D01*
X20000Y20000D02*
X34080Y34080D01*
X53550D01*
X57150Y30480D01*
X473710D01*
X514350Y71120D01*
X144780Y267970D02*
Y276080D01*
Y267970D02*
X154940Y257810D01*
X194310D01*
Y247650D02*
Y257810D01*
X1151890Y64770D02*
X1192530D01*
X1221740Y93980D01*
X1101732Y64770D02*
X1151890D01*
X979647Y149860D02*
X1016642D01*
X1101732Y64770D01*
D14*
X502250Y172060D02*
D03*
X477750D02*
D03*
X1022250D02*
D03*
X997750D02*
D03*
D15*
X31750Y54610D02*
D03*
X82550D02*
D03*
X730250Y50800D02*
D03*
X781050D02*
D03*
D16*
X942340Y68740D02*
D03*
Y88740D02*
D03*
D17*
X1165860Y27940D02*
D03*
D18*
X1140460D02*
D03*
X1115060D02*
D03*
X1089660D02*
D03*
X1064260D02*
D03*
X1487170Y71120D02*
D03*
Y248920D02*
D03*
Y223520D02*
D03*
Y96520D02*
D03*
Y121920D02*
D03*
Y147320D02*
D03*
Y172720D02*
D03*
Y198120D02*
D03*
X1258570Y96520D02*
D03*
Y121920D02*
D03*
Y147320D02*
D03*
Y172720D02*
D03*
Y198120D02*
D03*
Y223520D02*
D03*
Y248920D02*
D03*
D19*
Y71120D02*
D03*
D20*
X1337533Y124120D02*
D03*
X1117533D02*
D03*
X817533D02*
D03*
X597533D02*
D03*
X297533D02*
D03*
X77533D02*
D03*
D21*
X1380000Y236560D02*
D03*
X1160000D02*
D03*
X860000D02*
D03*
X640000D02*
D03*
X340000D02*
D03*
X120000D02*
D03*
D22*
X1350059Y229123D02*
D03*
X1130059D02*
D03*
X830059D02*
D03*
X610059D02*
D03*
X310059D02*
D03*
X90059D02*
D03*
D23*
X1327214Y208497D02*
D03*
X1107214D02*
D03*
X807214D02*
D03*
X587214D02*
D03*
X287214D02*
D03*
X67214D02*
D03*
D24*
X1316551Y179750D02*
D03*
X1096551D02*
D03*
X796551D02*
D03*
X576551D02*
D03*
X276551D02*
D03*
X56551D02*
D03*
D25*
X1319872Y149255D02*
D03*
X1099872D02*
D03*
X799872D02*
D03*
X579872D02*
D03*
X279872D02*
D03*
X59872D02*
D03*
D26*
X1364653Y109757D02*
D03*
X1144653D02*
D03*
X844653D02*
D03*
X624653D02*
D03*
X324653D02*
D03*
X104653D02*
D03*
D27*
X1395404Y109525D02*
D03*
X1175404D02*
D03*
X875404D02*
D03*
X655404D02*
D03*
X355404D02*
D03*
X135404D02*
D03*
D28*
X1422467Y124120D02*
D03*
X1202467D02*
D03*
X902467D02*
D03*
X682467D02*
D03*
X382467D02*
D03*
X162467D02*
D03*
D29*
X1440128Y149255D02*
D03*
X1220128D02*
D03*
X920128D02*
D03*
X700128D02*
D03*
X400128D02*
D03*
X180128D02*
D03*
D30*
X1443449Y179750D02*
D03*
X1223449D02*
D03*
X923449D02*
D03*
X703449D02*
D03*
X403449D02*
D03*
X183449D02*
D03*
D31*
X1432786Y208497D02*
D03*
X1212786D02*
D03*
X912786D02*
D03*
X692786D02*
D03*
X392786D02*
D03*
X172786D02*
D03*
D32*
X1409941Y229123D02*
D03*
X1189941D02*
D03*
X889941D02*
D03*
X669941D02*
D03*
X369941D02*
D03*
X149941D02*
D03*
D33*
X35560Y210820D02*
D03*
X1424940Y387350D02*
D03*
X1118870Y298450D02*
D03*
X1132840Y351790D02*
D03*
X1145700Y299560D02*
D03*
X1112520Y349250D02*
D03*
X919480Y292100D02*
D03*
X982980Y254000D02*
D03*
X995680Y298450D02*
D03*
X1012380Y297700D02*
D03*
X974075Y347995D02*
D03*
X957580Y342900D02*
D03*
X859790Y297180D02*
D03*
X834390D02*
D03*
X847090Y308610D02*
D03*
X820362Y308668D02*
D03*
X809625Y344805D02*
D03*
X796290Y330200D02*
D03*
X659130Y345440D02*
D03*
X640080D02*
D03*
X488950Y341630D02*
D03*
X509270Y346710D02*
D03*
X519430Y314960D02*
D03*
X537210D02*
D03*
X482600Y313690D02*
D03*
X325120D02*
D03*
X307340Y313241D02*
D03*
X287020Y313690D02*
D03*
X236220Y327660D02*
D03*
X222250Y316230D02*
D03*
X250190Y314960D02*
D03*
X264160Y326390D02*
D03*
X205740Y347980D02*
D03*
X1371600Y309880D02*
D03*
X1296670Y298450D02*
D03*
X1313370Y297700D02*
D03*
X1330960Y298450D02*
D03*
X1344930Y312420D02*
D03*
X1290320Y349250D02*
D03*
X1355090Y347980D02*
D03*
X1278890Y335280D02*
D03*
X1258570Y347980D02*
D03*
X1397000Y363220D02*
D03*
X1250950Y274320D02*
D03*
X1196340Y349250D02*
D03*
X1214120Y346710D02*
D03*
X1094250Y370350D02*
D03*
X1072530Y383741D02*
D03*
X1221740Y93980D02*
D03*
X930130Y370350D02*
D03*
X897715Y389890D02*
D03*
X770400Y369080D02*
D03*
X754380Y389890D02*
D03*
X552450Y326390D02*
D03*
X589280Y323850D02*
D03*
X557530Y295910D02*
D03*
X589280Y306070D02*
D03*
X607060Y304800D02*
D03*
X699770Y295910D02*
D03*
X735330Y242570D02*
D03*
X510540Y199390D02*
D03*
X466090Y248920D02*
D03*
X347980Y212090D02*
D03*
X236220Y101600D02*
D03*
X193040Y335280D02*
D03*
X100330Y346710D02*
D03*
X68580Y297180D02*
D03*
X1400810Y337820D02*
D03*
X1481960Y267840D02*
D03*
X1231908Y388628D02*
D03*
X1037590Y312420D02*
D03*
X144780Y297180D02*
D03*
X179070Y309880D02*
D03*
X155252Y310325D02*
D03*
X43180Y317500D02*
D03*
X365760Y347980D02*
D03*
X344170Y342900D02*
D03*
X1452880Y121920D02*
D03*
X1215390Y246380D02*
D03*
X970280Y29210D02*
D03*
X269240Y243840D02*
D03*
X287020Y240030D02*
D03*
X313690Y254000D02*
D03*
X194310Y247650D02*
D03*
X631190Y213360D02*
D03*
X1046480Y257810D02*
D03*
X1024635Y215196D02*
D03*
D34*
X1480000Y20000D02*
D03*
Y380000D02*
D03*
X20000D02*
D03*
Y20000D02*
D03*
D35*
X294640Y276080D02*
D03*
X281940D02*
D03*
X269240D02*
D03*
X231140D02*
D03*
X243840D02*
D03*
X256540D02*
D03*
X193040D02*
D03*
X180340D02*
D03*
X205740D02*
D03*
X218440D02*
D03*
Y369080D02*
D03*
X205740D02*
D03*
X180340D02*
D03*
X193040D02*
D03*
X256540D02*
D03*
X243840D02*
D03*
X231140D02*
D03*
X269240D02*
D03*
X281940D02*
D03*
X294640D02*
D03*
X454660Y274810D02*
D03*
X441960D02*
D03*
X429260D02*
D03*
X391160D02*
D03*
X403860D02*
D03*
X416560D02*
D03*
X353060D02*
D03*
X340360D02*
D03*
X365760D02*
D03*
X378460D02*
D03*
Y367810D02*
D03*
X365760D02*
D03*
X340360D02*
D03*
X353060D02*
D03*
X416560D02*
D03*
X403860D02*
D03*
X391160D02*
D03*
X429260D02*
D03*
X441960D02*
D03*
X454660D02*
D03*
X599440Y274810D02*
D03*
X586740D02*
D03*
X574040D02*
D03*
X535940D02*
D03*
X548640D02*
D03*
X561340D02*
D03*
X497840D02*
D03*
X485140D02*
D03*
X510540D02*
D03*
X523240D02*
D03*
Y367810D02*
D03*
X510540D02*
D03*
X485140D02*
D03*
X497840D02*
D03*
X561340D02*
D03*
X548640D02*
D03*
X535940D02*
D03*
X574040D02*
D03*
X586740D02*
D03*
X599440D02*
D03*
X1059180Y277350D02*
D03*
X1046480D02*
D03*
X1033780D02*
D03*
X995680D02*
D03*
X1008380D02*
D03*
X1021080D02*
D03*
X957580D02*
D03*
X944880D02*
D03*
X970280D02*
D03*
X982980D02*
D03*
Y370350D02*
D03*
X970280D02*
D03*
X944880D02*
D03*
X957580D02*
D03*
X1021080D02*
D03*
X1008380D02*
D03*
X995680D02*
D03*
X1033780D02*
D03*
X1046480D02*
D03*
X1059180D02*
D03*
X1380490Y277350D02*
D03*
X1367790D02*
D03*
X1355090D02*
D03*
X1316990D02*
D03*
X1329690D02*
D03*
X1342390D02*
D03*
X1278890D02*
D03*
X1266190D02*
D03*
X1291590D02*
D03*
X1304290D02*
D03*
Y370350D02*
D03*
X1291590D02*
D03*
X1266190D02*
D03*
X1278890D02*
D03*
X1342390D02*
D03*
X1329690D02*
D03*
X1316990D02*
D03*
X1355090D02*
D03*
X1367790D02*
D03*
X1380490D02*
D03*
X157480Y276080D02*
D03*
X144780D02*
D03*
X132080D02*
D03*
X93980D02*
D03*
X106680D02*
D03*
X119380D02*
D03*
X55880D02*
D03*
X43180D02*
D03*
X68580D02*
D03*
X81280D02*
D03*
Y369080D02*
D03*
X68580D02*
D03*
X43180D02*
D03*
X55880D02*
D03*
X119380D02*
D03*
X106680D02*
D03*
X93980D02*
D03*
X132080D02*
D03*
X144780D02*
D03*
X157480D02*
D03*
X748030Y276080D02*
D03*
X735330D02*
D03*
X722630D02*
D03*
X684530D02*
D03*
X697230D02*
D03*
X709930D02*
D03*
X646430D02*
D03*
X633730D02*
D03*
X659130D02*
D03*
X671830D02*
D03*
Y369080D02*
D03*
X659130D02*
D03*
X633730D02*
D03*
X646430D02*
D03*
X709930D02*
D03*
X697230D02*
D03*
X684530D02*
D03*
X722630D02*
D03*
X735330D02*
D03*
X748030D02*
D03*
X897890Y276080D02*
D03*
X885190D02*
D03*
X872490D02*
D03*
X834390D02*
D03*
X847090D02*
D03*
X859790D02*
D03*
X796290D02*
D03*
X783590D02*
D03*
X808990D02*
D03*
X821690D02*
D03*
Y369080D02*
D03*
X808990D02*
D03*
X783590D02*
D03*
X796290D02*
D03*
X859790D02*
D03*
X847090D02*
D03*
X834390D02*
D03*
X872490D02*
D03*
X885190D02*
D03*
X897890D02*
D03*
X1221740Y277350D02*
D03*
X1209040D02*
D03*
X1196340D02*
D03*
X1158240D02*
D03*
X1170940D02*
D03*
X1183640D02*
D03*
X1120140D02*
D03*
X1107440D02*
D03*
X1132840D02*
D03*
X1145540D02*
D03*
Y370350D02*
D03*
X1132840D02*
D03*
X1107440D02*
D03*
X1120140D02*
D03*
X1183640D02*
D03*
X1170940D02*
D03*
X1158240D02*
D03*
X1196340D02*
D03*
X1209040D02*
D03*
X1221740D02*
D03*
D36*
X152890Y57150D02*
D03*
X118890D02*
D03*
D37*
X197490Y66040D02*
D03*
D38*
X277490D02*
D03*
D39*
X475140Y123190D02*
D03*
X495140D02*
D03*
D40*
X441540Y48120D02*
D03*
Y94120D02*
D03*
D41*
X510540Y71120D02*
D03*
D42*
X1028300Y110490D02*
D03*
Y97790D02*
D03*
Y85090D02*
D03*
Y72390D02*
D03*
X978300Y110490D02*
D03*
Y97790D02*
D03*
Y85090D02*
D03*
Y72390D02*
D03*
D43*
X1433960Y280670D02*
D03*
Y293370D02*
D03*
Y306070D02*
D03*
Y318770D02*
D03*
Y331470D02*
D03*
Y344170D02*
D03*
Y356870D02*
D03*
X1481960Y280670D02*
D03*
Y293370D02*
D03*
Y306070D02*
D03*
Y318770D02*
D03*
Y331470D02*
D03*
Y344170D02*
D03*
Y356870D02*
D03*
M02*
