G04 Layer_Color=8388736*
%FSLAX44Y44*%
%MOMM*%
G71*
G01*
G75*
%ADD48R,1.6532X1.3032*%
%ADD49O,1.7032X2.2032*%
%ADD50C,3.2032*%
%ADD51O,1.7272X1.1032*%
%ADD52R,1.7272X1.7272*%
%ADD53C,1.7272*%
%ADD54R,1.7272X1.7272*%
G04:AMPARAMS|DCode=55|XSize=1.8032mm|YSize=2.8032mm|CornerRadius=0mm|HoleSize=0mm|Usage=FLASHONLY|Rotation=138.462|XOffset=0mm|YOffset=0mm|HoleType=Round|Shape=Round|*
%AMOVALD55*
21,1,1.0000,1.8032,0.0000,0.0000,228.5*
1,1,1.8032,0.3316,0.3743*
1,1,1.8032,-0.3316,-0.3743*
%
%ADD55OVALD55*%

%ADD56O,1.8032X2.8032*%
G04:AMPARAMS|DCode=57|XSize=1.8032mm|YSize=2.8032mm|CornerRadius=0mm|HoleSize=0mm|Usage=FLASHONLY|Rotation=27.692|XOffset=0mm|YOffset=0mm|HoleType=Round|Shape=Round|*
%AMOVALD57*
21,1,1.0000,1.8032,0.0000,0.0000,117.7*
1,1,1.8032,0.2324,-0.4427*
1,1,1.8032,-0.2324,0.4427*
%
%ADD57OVALD57*%

G04:AMPARAMS|DCode=58|XSize=1.8032mm|YSize=2.8032mm|CornerRadius=0mm|HoleSize=0mm|Usage=FLASHONLY|Rotation=55.385|XOffset=0mm|YOffset=0mm|HoleType=Round|Shape=Round|*
%AMOVALD58*
21,1,1.0000,1.8032,0.0000,0.0000,145.4*
1,1,1.8032,0.4115,-0.2840*
1,1,1.8032,-0.4115,0.2840*
%
%ADD58OVALD58*%

G04:AMPARAMS|DCode=59|XSize=1.8032mm|YSize=2.8032mm|CornerRadius=0mm|HoleSize=0mm|Usage=FLASHONLY|Rotation=83.077|XOffset=0mm|YOffset=0mm|HoleType=Round|Shape=Round|*
%AMOVALD59*
21,1,1.0000,1.8032,0.0000,0.0000,173.1*
1,1,1.8032,0.4964,-0.0603*
1,1,1.8032,-0.4964,0.0603*
%
%ADD59OVALD59*%

G04:AMPARAMS|DCode=60|XSize=1.8032mm|YSize=2.8032mm|CornerRadius=0mm|HoleSize=0mm|Usage=FLASHONLY|Rotation=110.769|XOffset=0mm|YOffset=0mm|HoleType=Round|Shape=Round|*
%AMOVALD60*
21,1,1.0000,1.8032,0.0000,0.0000,200.8*
1,1,1.8032,0.4675,0.1773*
1,1,1.8032,-0.4675,-0.1773*
%
%ADD60OVALD60*%

G04:AMPARAMS|DCode=61|XSize=1.8032mm|YSize=2.8032mm|CornerRadius=0mm|HoleSize=0mm|Usage=FLASHONLY|Rotation=166.154|XOffset=0mm|YOffset=0mm|HoleType=Round|Shape=Round|*
%AMOVALD61*
21,1,1.0000,1.8032,0.0000,0.0000,256.2*
1,1,1.8032,0.1197,0.4855*
1,1,1.8032,-0.1197,-0.4855*
%
%ADD61OVALD61*%

G04:AMPARAMS|DCode=62|XSize=1.8032mm|YSize=2.8032mm|CornerRadius=0mm|HoleSize=0mm|Usage=FLASHONLY|Rotation=193.846|XOffset=0mm|YOffset=0mm|HoleType=Round|Shape=Round|*
%AMOVALD62*
21,1,1.0000,1.8032,0.0000,0.0000,283.8*
1,1,1.8032,-0.1197,0.4855*
1,1,1.8032,0.1197,-0.4855*
%
%ADD62OVALD62*%

G04:AMPARAMS|DCode=63|XSize=1.8032mm|YSize=2.8032mm|CornerRadius=0mm|HoleSize=0mm|Usage=FLASHONLY|Rotation=221.538|XOffset=0mm|YOffset=0mm|HoleType=Round|Shape=Round|*
%AMOVALD63*
21,1,1.0000,1.8032,0.0000,0.0000,311.5*
1,1,1.8032,-0.3316,0.3743*
1,1,1.8032,0.3316,-0.3743*
%
%ADD63OVALD63*%

G04:AMPARAMS|DCode=64|XSize=1.8032mm|YSize=2.8032mm|CornerRadius=0mm|HoleSize=0mm|Usage=FLASHONLY|Rotation=249.231|XOffset=0mm|YOffset=0mm|HoleType=Round|Shape=Round|*
%AMOVALD64*
21,1,1.0000,1.8032,0.0000,0.0000,339.2*
1,1,1.8032,-0.4675,0.1773*
1,1,1.8032,0.4675,-0.1773*
%
%ADD64OVALD64*%

G04:AMPARAMS|DCode=65|XSize=1.8032mm|YSize=2.8032mm|CornerRadius=0mm|HoleSize=0mm|Usage=FLASHONLY|Rotation=276.923|XOffset=0mm|YOffset=0mm|HoleType=Round|Shape=Round|*
%AMOVALD65*
21,1,1.0000,1.8032,0.0000,0.0000,6.9*
1,1,1.8032,-0.4964,-0.0603*
1,1,1.8032,0.4964,0.0603*
%
%ADD65OVALD65*%

G04:AMPARAMS|DCode=66|XSize=1.8032mm|YSize=2.8032mm|CornerRadius=0mm|HoleSize=0mm|Usage=FLASHONLY|Rotation=304.615|XOffset=0mm|YOffset=0mm|HoleType=Round|Shape=Round|*
%AMOVALD66*
21,1,1.0000,1.8032,0.0000,0.0000,34.6*
1,1,1.8032,-0.4115,-0.2840*
1,1,1.8032,0.4115,0.2840*
%
%ADD66OVALD66*%

G04:AMPARAMS|DCode=67|XSize=1.8032mm|YSize=2.8032mm|CornerRadius=0mm|HoleSize=0mm|Usage=FLASHONLY|Rotation=332.308|XOffset=0mm|YOffset=0mm|HoleType=Round|Shape=Round|*
%AMOVALD67*
21,1,1.0000,1.8032,0.0000,0.0000,62.3*
1,1,1.8032,-0.2324,-0.4427*
1,1,1.8032,0.2324,0.4427*
%
%ADD67OVALD67*%

%ADD68C,1.4732*%
%ADD69C,2.7032*%
D48*
X403860Y275750D02*
D03*
Y295750D02*
D03*
X379730Y275750D02*
D03*
Y295750D02*
D03*
X1418590Y279560D02*
D03*
Y299560D02*
D03*
X1212850D02*
D03*
Y279560D02*
D03*
X963930Y275750D02*
D03*
Y295750D02*
D03*
X741680D02*
D03*
Y275750D02*
D03*
X203200Y271940D02*
D03*
Y291940D02*
D03*
X1087120Y299560D02*
D03*
Y279560D02*
D03*
X1398270Y299560D02*
D03*
Y279560D02*
D03*
X1188720D02*
D03*
Y299560D02*
D03*
X939800Y295750D02*
D03*
Y275750D02*
D03*
X717550D02*
D03*
Y295750D02*
D03*
X177800Y291940D02*
D03*
Y271940D02*
D03*
D49*
X502250Y172060D02*
D03*
X477750D02*
D03*
X1022250D02*
D03*
X997750D02*
D03*
D50*
X31750Y54610D02*
D03*
X82550D02*
D03*
X730250Y50800D02*
D03*
X781050D02*
D03*
D51*
X942340Y68740D02*
D03*
Y88740D02*
D03*
D52*
X1165860Y27940D02*
D03*
D53*
X1140460D02*
D03*
X1115060D02*
D03*
X1089660D02*
D03*
X1064260D02*
D03*
X1487170Y71120D02*
D03*
Y248920D02*
D03*
Y223520D02*
D03*
Y96520D02*
D03*
Y121920D02*
D03*
Y147320D02*
D03*
Y172720D02*
D03*
Y198120D02*
D03*
X1258570Y96520D02*
D03*
Y121920D02*
D03*
Y147320D02*
D03*
Y172720D02*
D03*
Y198120D02*
D03*
Y223520D02*
D03*
Y248920D02*
D03*
D54*
Y71120D02*
D03*
D55*
X1337533Y124120D02*
D03*
X1117533D02*
D03*
X817533D02*
D03*
X597533D02*
D03*
X297533D02*
D03*
X77533D02*
D03*
D56*
X1380000Y236560D02*
D03*
X1160000D02*
D03*
X860000D02*
D03*
X640000D02*
D03*
X340000D02*
D03*
X120000D02*
D03*
D57*
X1350059Y229123D02*
D03*
X1130059D02*
D03*
X830059D02*
D03*
X610059D02*
D03*
X310059D02*
D03*
X90059D02*
D03*
D58*
X1327214Y208497D02*
D03*
X1107214D02*
D03*
X807214D02*
D03*
X587214D02*
D03*
X287214D02*
D03*
X67214D02*
D03*
D59*
X1316551Y179750D02*
D03*
X1096551D02*
D03*
X796551D02*
D03*
X576551D02*
D03*
X276551D02*
D03*
X56551D02*
D03*
D60*
X1319872Y149255D02*
D03*
X1099872D02*
D03*
X799872D02*
D03*
X579872D02*
D03*
X279872D02*
D03*
X59872D02*
D03*
D61*
X1364653Y109757D02*
D03*
X1144653D02*
D03*
X844653D02*
D03*
X624653D02*
D03*
X324653D02*
D03*
X104653D02*
D03*
D62*
X1395404Y109525D02*
D03*
X1175404D02*
D03*
X875404D02*
D03*
X655404D02*
D03*
X355404D02*
D03*
X135404D02*
D03*
D63*
X1422467Y124120D02*
D03*
X1202467D02*
D03*
X902467D02*
D03*
X682467D02*
D03*
X382467D02*
D03*
X162467D02*
D03*
D64*
X1440128Y149255D02*
D03*
X1220128D02*
D03*
X920128D02*
D03*
X700128D02*
D03*
X400128D02*
D03*
X180128D02*
D03*
D65*
X1443449Y179750D02*
D03*
X1223449D02*
D03*
X923449D02*
D03*
X703449D02*
D03*
X403449D02*
D03*
X183449D02*
D03*
D66*
X1432786Y208497D02*
D03*
X1212786D02*
D03*
X912786D02*
D03*
X692786D02*
D03*
X392786D02*
D03*
X172786D02*
D03*
D67*
X1409941Y229123D02*
D03*
X1189941D02*
D03*
X889941D02*
D03*
X669941D02*
D03*
X369941D02*
D03*
X149941D02*
D03*
D68*
X347980Y212090D02*
D03*
X631190Y213360D02*
D03*
D69*
X1480000Y20000D02*
D03*
Y380000D02*
D03*
X20000D02*
D03*
Y20000D02*
D03*
M02*
